<svg width="102" height="24" viewBox="0 0 102 24" fill="none" xmlns="http://www.w3.org/2000/svg">
<g clip-path="url(#clip0_794_24443)">
<path fill-rule="evenodd" clip-rule="evenodd" d="M8.89935 5.64823H15.8693C19.6116 5.64823 21.0203 7.4882 20.8026 10.1914C20.4446 14.6576 17.6667 17.1231 13.9802 17.1231H12.1199C11.6143 17.1231 11.2742 17.4464 11.1375 18.3288L10.3387 23.4486C10.2865 23.7806 10.1066 23.9728 9.83671 23.999H5.46654C5.05454 23.999 4.9088 23.6932 5.01675 23.031L7.68491 6.61802C7.79106 5.96101 8.16169 5.64648 8.89935 5.64648" fill="#009EE3"/>
<path fill-rule="evenodd" clip-rule="evenodd" d="M39.1607 5.3455C41.5122 5.3455 43.682 6.58438 43.3851 9.67196C43.0253 13.3414 41.0012 15.3719 37.8077 15.3806H35.0172C34.616 15.3806 34.4217 15.6986 34.3173 16.3504L33.7776 19.6826C33.6966 20.1858 33.4303 20.434 33.0381 20.434H30.4437C30.0299 20.434 29.886 20.1771 29.9777 19.6022L32.1241 6.24539C32.2303 5.58838 32.484 5.34375 32.9463 5.34375L39.1607 5.3455ZM34.9326 12.4957H37.0466C38.369 12.4468 39.247 11.5574 39.3352 9.95329C39.3891 8.96253 38.7019 8.2531 37.6044 8.25835H35.6127L34.9326 12.4957ZM50.4432 19.4117C50.6807 19.2038 50.9218 19.0937 50.8876 19.3523L50.803 19.9709C50.7599 20.2942 50.8912 20.4654 51.2007 20.4654H53.5072C53.8958 20.4654 54.0847 20.3134 54.1801 19.7298L55.5942 11.0664C55.6662 10.6313 55.5564 10.4181 55.2164 10.4181H52.6868C52.4583 10.4181 52.3467 10.5421 52.2874 10.8811L52.1938 11.4141C52.1452 11.6919 52.0139 11.7408 51.8915 11.4613C51.4615 10.4723 50.364 10.0284 48.833 10.0634C45.267 10.135 42.8687 12.7561 42.6132 16.1145C42.4153 18.7146 44.3332 20.7572 46.8629 20.7572C48.698 20.7572 49.5184 20.233 50.4432 19.4117ZM48.5127 18.0803C46.9816 18.0803 45.9147 16.8938 46.136 15.44C46.3573 13.9862 47.7894 12.7997 49.3205 12.7997C50.8516 12.7997 51.9203 13.9792 51.6972 15.44C51.4741 16.9008 50.0438 18.0803 48.5127 18.0803ZM60.1173 10.3919H57.7784C57.2962 10.3919 57.1001 10.7413 57.253 11.1712L60.1569 19.4292L57.2962 23.3573C57.0569 23.6858 57.2423 23.9846 57.5787 23.9846H60.2073C60.3605 24.0018 60.5155 23.9759 60.654 23.9099C60.7924 23.8439 60.9084 23.7406 60.9881 23.6124L69.9192 11.1712C70.1944 10.7885 70.0649 10.3866 69.6133 10.3866H67.1359C66.7095 10.3866 66.5385 10.5509 66.2938 10.8951L62.5696 16.1372L60.9125 10.8794C60.81 10.5561 60.5671 10.3884 60.1191 10.3884" fill="#113984"/>
<path fill-rule="evenodd" clip-rule="evenodd" d="M79.2202 5.3455C81.5717 5.3455 83.7415 6.58438 83.4447 9.67196C83.0848 13.3414 81.0608 15.3719 77.8672 15.3806H75.0785C74.6773 15.3806 74.483 15.6986 74.3787 16.3504L73.8389 19.6826C73.758 20.1858 73.4917 20.434 73.0995 20.434H70.5033C70.0895 20.434 69.9455 20.1771 70.0373 19.6022L72.1837 6.24539C72.2898 5.58838 72.5435 5.34375 73.0059 5.34375L79.2202 5.3455ZM74.9922 12.4957H77.1062C78.4286 12.4468 79.3066 11.5574 79.3965 9.95329C79.4505 8.96253 78.7614 8.25311 77.6657 8.25835H75.6759L74.9922 12.4957ZM90.4974 19.4118C90.7349 19.2038 90.976 19.0937 90.9418 19.3523L90.8572 19.9709C90.814 20.2942 90.9454 20.4654 91.2548 20.4654H93.5614C93.95 20.4654 94.1389 20.3134 94.2342 19.7298L95.6556 11.0664C95.7275 10.6313 95.6178 10.4181 95.2778 10.4181H92.7481C92.5196 10.4181 92.4081 10.5421 92.3487 10.8811L92.2552 11.4141C92.2066 11.6919 92.0752 11.7408 91.9529 11.4613C91.5229 10.4723 90.4254 10.0284 88.8943 10.0634C85.3284 10.135 82.9301 12.7561 82.6728 16.1145C82.4749 18.7163 84.3946 20.7572 86.9224 20.7572C88.7576 20.7572 89.578 20.233 90.5028 19.4118H90.4974ZM88.5723 18.0803C87.0412 18.0803 85.9743 16.8938 86.1956 15.44C86.4169 13.9862 87.849 12.7997 89.3801 12.7997C90.9112 12.7997 91.9799 13.9792 91.7568 15.44C91.5337 16.9008 90.1034 18.0803 88.5723 18.0803ZM99.2107 20.4811H96.548C96.5017 20.4831 96.4555 20.4752 96.4127 20.4579C96.3699 20.4405 96.3316 20.4142 96.3004 20.3808C96.2693 20.3475 96.2462 20.3078 96.2327 20.2647C96.2192 20.2217 96.2156 20.1762 96.2223 20.1317L98.5612 5.74215C98.5836 5.64393 98.6395 5.55594 98.7198 5.49249C98.8002 5.42904 98.9003 5.39386 99.0038 5.39268H101.665C101.711 5.3904 101.758 5.39815 101.801 5.41537C101.844 5.43259 101.882 5.45885 101.914 5.49227C101.945 5.52568 101.968 5.56543 101.982 5.60863C101.995 5.65184 101.999 5.69744 101.992 5.74215L99.6533 20.1317C99.631 20.2299 99.5751 20.3179 99.4947 20.3813C99.4144 20.4448 99.3143 20.48 99.2107 20.4811Z" fill="#009EE3"/>
<path fill-rule="evenodd" clip-rule="evenodd" d="M4.54176 0H11.5153C13.4944 0 15.8171 0.0611576 17.3752 1.39789C18.4169 2.29079 18.9639 3.71139 18.8361 5.24208C18.4079 10.416 15.2216 13.3149 10.9468 13.3149H7.50678C6.92026 13.3149 6.53344 13.6923 6.36791 14.7128L5.40716 20.6538C5.34419 21.0382 5.17327 21.2654 4.86741 21.2933H0.562012C0.0852335 21.2933 -0.0838879 20.9439 0.0402544 20.1715L3.13482 1.1253C3.25896 0.363451 3.68896 0 4.54176 0Z" fill="#113984"/>
<path fill-rule="evenodd" clip-rule="evenodd" d="M6.46777 14.109L7.68581 6.61802C7.79196 5.96101 8.16259 5.64648 8.89844 5.64648H15.8702C17.0235 5.64648 17.9572 5.82122 18.6877 6.14448C17.9878 10.7505 14.9202 13.3087 10.9045 13.3087H7.46271C7.00932 13.3087 6.67108 13.5341 6.46777 14.109Z" fill="#172C70"/>
</g>
<defs>
<clipPath id="clip0_794_24443">
<rect width="102" height="24" fill="white"/>
</clipPath>
</defs>
</svg>
