<svg width="30" height="30" viewBox="0 0 30 30" fill="none" xmlns="http://www.w3.org/2000/svg">
<g id="Frame 37673">
<path id="Vector" d="M20.8926 11.3598C22.6139 12.5612 24.7225 13.268 27 13.268V8.98909C26.569 8.98918 26.1391 8.9453 25.7174 8.85807V12.2262C23.4401 12.2262 21.3318 11.5193 19.61 10.3181V19.0501C19.61 23.4184 15.9832 26.9592 11.5095 26.9592C9.8403 26.9592 8.28881 26.4665 7 25.6215C8.47097 27.09 10.5224 28.001 12.7918 28.001C17.2658 28.001 20.8928 24.4601 20.8928 20.0917V11.3598H20.8926ZM22.4748 7.04289C21.5952 6.10456 21.0176 4.89194 20.8926 3.55134V3.00098H19.6772C19.9831 4.70488 21.0266 6.1606 22.4748 7.04289ZM9.82959 22.2695C9.33811 21.6403 9.07251 20.8706 9.0737 20.0792C9.0737 18.0813 10.7326 16.4614 12.7792 16.4614C13.1606 16.4613 13.5398 16.5184 13.9033 16.631V12.2564C13.4785 12.1996 13.0498 12.1754 12.6212 12.1843V15.5892C12.2575 15.4766 11.8781 15.4194 11.4966 15.4198C9.45 15.4198 7.7912 17.0395 7.7912 19.0376C7.7912 20.4504 8.62037 21.6736 9.82959 22.2695Z" fill="#FF004F"/>
<path id="Vector_2" d="M19.6097 10.3307C21.4112 11.5341 23.6173 12.2421 26 12.2421V8.86816C24.67 8.60333 23.4925 7.95362 22.6072 7.04992C21.0919 6.166 20.0001 4.70775 19.68 3.00098H16.3395V20.1212C16.3319 22.1171 14.5992 23.7332 12.4624 23.7332C11.2032 23.7332 10.0845 23.1721 9.37603 22.3029C8.1109 21.7061 7.24333 20.4807 7.24333 19.0656C7.24333 17.0642 8.97896 15.4415 11.1204 15.4415C11.5307 15.4415 11.9261 15.5012 12.2971 15.6112V12.2003C7.69842 12.2891 4 15.8015 4 20.1213C4 22.2777 4.92099 24.2326 6.41577 25.6609C7.76428 26.5073 9.38762 27.001 11.1342 27.001C15.8151 27.001 19.6098 23.4538 19.6098 19.078V10.3307H19.6097Z" fill="black"/>
<path id="Vector_3" d="M26 8.99815V8.07443C24.8182 8.07615 23.6596 7.75824 22.6569 7.15705C23.5445 8.09047 24.7133 8.73408 26 8.99815ZM19.7726 3.0575C19.7425 2.89234 19.7194 2.72608 19.7033 2.5592V2.00098H15.1586V19.3358C15.1513 21.3563 13.444 22.9927 11.3383 22.9927C10.7201 22.9927 10.1364 22.8517 9.61953 22.6012C10.3176 23.4812 11.4199 24.0492 12.6607 24.0492C14.766 24.0492 16.4737 22.4131 16.481 20.3922V3.0575H19.7726ZM12.498 12.372V11.3887C12.1182 11.3388 11.7353 11.3138 11.352 11.314C6.73923 11.3139 3 14.9055 3 19.3358C3 22.1133 4.46958 24.5611 6.70272 26.001C5.22984 24.5548 4.32234 22.5754 4.32234 20.3921C4.32234 16.0183 7.96649 12.462 12.498 12.372Z" fill="#00F2EA"/>
</g>
</svg>
