<svg width="110" height="24" viewBox="0 0 110 24" fill="none" xmlns="http://www.w3.org/2000/svg">
<g clip-path="url(#clip0_794_24456)">
<path d="M0 24V0H110V24H0Z" fill="#FECC00"/>
<path d="M35.4664 10.0287C34.9857 10.6722 34.1814 11.791 33.692 12.4444C33.4435 12.7767 32.9947 13.38 34.4825 13.38C36.0566 13.38 42.3156 13.38 42.3156 13.38C42.3156 13.38 43.578 11.6821 44.6364 10.262C46.076 8.33014 44.761 4.31055 39.6142 4.31055C35.0076 4.31055 19.3452 4.31055 19.3452 4.31055L15.8308 9.03122C15.8308 9.03122 34.05 9.03122 34.9851 9.03122C35.9521 9.03122 35.939 9.39506 35.4664 10.0287ZM29.7119 14.5445C28.2242 14.5445 28.6729 13.94 28.9214 13.6077C29.4109 12.9543 30.2283 11.8473 30.709 11.2038C31.1821 10.5701 31.1947 10.2063 30.2264 10.2063C29.2919 10.2063 21.4664 10.2063 21.4664 10.2063L14.4081 19.6897C14.4081 19.6897 27.0143 19.6897 31.6209 19.6897C37.3059 19.6897 40.4711 15.8669 41.4468 14.5452C41.4468 14.5445 31.2854 14.5445 29.7119 14.5445ZM40.9092 19.6897H51.0068L54.8348 14.5439L44.7384 14.5452C44.7353 14.5445 40.9092 19.6897 40.9092 19.6897ZM66.9621 4.31055L63.0891 9.51139H58.5826L62.4538 4.31055H52.3593L45.6059 13.38H70.3038L77.0553 4.31055H66.9621ZM55.5132 19.6897H65.6071L69.4369 14.5452H59.3431C59.3393 14.5445 55.5132 19.6897 55.5132 19.6897ZM0 16.5741V17.6669H14.0626L14.875 16.5741H0ZM16.3866 14.5445H0V15.6361H15.5723L16.3866 14.5445ZM0 19.6897H12.5561L13.3648 18.6031H0V19.6897ZM95.1813 17.6663H110V16.5735H95.9949L95.1813 17.6663ZM93.676 19.6897H110V18.6031H94.484L93.676 19.6897ZM97.504 14.5445L96.6922 15.6373H110V14.5445H97.504ZM84.2825 13.38L91.0353 4.31055H80.3444C80.3407 4.31055 73.5866 13.38 73.5866 13.38H84.2825ZM72.721 14.5445C72.721 14.5445 71.9831 15.5414 71.6244 16.0216C70.357 17.7146 71.478 19.6897 75.6151 19.6897C80.3945 19.6897 91.8265 19.6897 91.8265 19.6897L95.6563 14.5452L72.721 14.5445Z" fill="#D50029"/>
</g>
<defs>
<clipPath id="clip0_794_24456">
<rect width="110" height="24" rx="2" fill="white"/>
</clipPath>
</defs>
</svg>
