<svg width="24" height="24" viewBox="0 0 24 24" fill="none" xmlns="http://www.w3.org/2000/svg">
<g id="instagram (7) 1">
<g id="Group">
<g id="Group_2">
<path id="Vector" d="M17.8146 5.70117C17.547 5.70117 17.3291 5.91902 17.3291 6.18672C17.3291 6.45441 17.547 6.67227 17.8146 6.67227C18.0824 6.67227 18.3002 6.45445 18.3002 6.18672C18.3002 5.91898 18.0824 5.70117 17.8146 5.70117Z" fill="#231F20"/>
</g>
</g>
<g id="Group_3">
<g id="Group_4">
<path id="Vector_2" d="M11.9989 7.69467C9.62535 7.69467 7.69434 9.62569 7.69434 11.9992C7.69434 14.3727 9.62535 16.3038 11.9989 16.3038C14.3724 16.3038 16.3034 14.3728 16.3034 11.9992C16.3034 9.62573 14.3724 7.69467 11.9989 7.69467Z" fill="#231F20"/>
</g>
</g>
<g id="Group_5">
<g id="Group_6">
<path id="Vector_3" d="M16.5173 2H7.4827C4.45953 2 2 4.45953 2 7.48273V16.5173C2 19.5405 4.45953 22 7.4827 22H16.5173C19.5405 22 22 19.5405 22 16.5173V7.48273C22 4.45953 19.5405 2 16.5173 2ZM12 17.4856C8.9752 17.4856 6.51441 15.0248 6.51441 12C6.51441 8.9752 8.97523 6.51445 12 6.51445C15.0248 6.51445 17.4856 8.97523 17.4856 12C17.4856 15.0248 15.0248 17.4856 12 17.4856ZM17.8137 7.85297C16.8947 7.85297 16.1471 7.10531 16.1471 6.18633C16.1471 5.26734 16.8947 4.51965 17.8137 4.51965C18.7327 4.51965 19.4804 5.2673 19.4804 6.18629C19.4804 7.10527 18.7327 7.85297 17.8137 7.85297Z" fill="#231F20"/>
</g>
</g>
</g>
</svg>
