<svg width="72" height="72" viewBox="0 0 72 72" fill="none" xmlns="http://www.w3.org/2000/svg">
<rect x="0.5" y="0.5" width="71" height="71" rx="11.5" stroke="#BA8661"/>
<path d="M27.1868 56.6795C27.1868 56.6795 27.1268 44.1295 27.1868 39.5695C27.5356 31.9615 30.6507 24.7427 35.9468 19.2695C41.3575 24.8411 44.4862 32.2365 44.7168 39.9995L44.8268 56.7295L27.1868 56.6795Z" stroke="#BA8661" stroke-linecap="round" stroke-linejoin="round"/>
<path d="M36.228 42.9598C38.3322 42.9598 40.038 41.254 40.038 39.1498C40.038 37.0456 38.3322 35.3398 36.228 35.3398C34.1238 35.3398 32.418 37.0456 32.418 39.1498C32.418 41.254 34.1238 42.9598 36.228 42.9598Z" stroke="#BA8661" stroke-linecap="round" stroke-linejoin="round"/>
<path d="M27.1969 51.7186L19.7969 51.7086L27.1569 40.0586" stroke="#BA8661" stroke-linecap="round" stroke-linejoin="round"/>
<path d="M44.7192 51.7188H27.1992" stroke="#BA8661" stroke-linecap="round" stroke-linejoin="round"/>
<path d="M44.7188 51.7192L52.1187 51.7092L44.7188 39.9492" stroke="#BA8661" stroke-linecap="round" stroke-linejoin="round"/>
<path d="M40.9688 61.5C40.9688 64.17 38.5287 67.13 35.9688 69.22C33.4488 66.97 30.9688 64.17 30.9688 61.5C31.1034 60.276 31.6851 59.1447 32.6022 58.323C33.5193 57.5013 34.7074 57.0469 35.9388 57.0469C37.1701 57.0469 38.3582 57.5013 39.2753 58.323C40.1924 59.1447 40.7741 60.276 40.9088 61.5H40.9688Z" stroke="#BA8661" stroke-linecap="round" stroke-linejoin="round"/>
<path d="M25.1502 43.2496C22.2454 40.9931 20.1168 37.8868 19.0607 34.3635C18.0047 30.8401 18.0739 27.0751 19.2586 23.5929C20.4433 20.1107 22.6846 17.0847 25.6702 14.9364C28.6559 12.7881 32.2372 11.6245 35.9154 11.6076C39.5935 11.5908 43.1854 12.7215 46.1906 14.8423C49.1958 16.9632 51.4647 19.9685 52.6813 23.4397C53.8979 26.9109 54.0016 30.6751 52.9779 34.208C51.9542 37.7409 49.8541 40.8666 46.9701 43.1496" stroke="#BA8661" stroke-linecap="round" stroke-linejoin="round"/>
<path d="M36 0.5V11.6" stroke="#BA8661" stroke-linecap="round" stroke-linejoin="round"/>
<path d="M1 9L20 20" stroke="#BA8661" stroke-linecap="round" stroke-linejoin="round"/>
<path d="M51.2891 38.0801L71.5 50" stroke="#BA8661" stroke-linecap="round" stroke-linejoin="round"/>
<path d="M71 9.5L51.6602 20.4786" stroke="#BA8661" stroke-linecap="round" stroke-linejoin="round"/>
<path d="M20.6898 38.3594L0.5 50" stroke="#BA8661" stroke-linecap="round" stroke-linejoin="round"/>
<path d="M49 51.7988L60.5 71.5" stroke="#BA8661" stroke-linecap="round" stroke-linejoin="round"/>
<path d="M19.5 0.5L27.1277 13.91" stroke="#BA8661" stroke-linecap="round" stroke-linejoin="round"/>
<path d="M53 0.5L44.8281 13.98" stroke="#BA8661" stroke-linecap="round" stroke-linejoin="round"/>
<path d="M23.0472 51.709L11.5 71.5" stroke="#BA8661" stroke-linecap="round" stroke-linejoin="round"/>
<path d="M71.5 29.2793H53.6797" stroke="#BA8661" stroke-linecap="round" stroke-linejoin="round"/>
<path d="M18.3234 29.2793H0.613281" stroke="#BA8661" stroke-linecap="round" stroke-linejoin="round"/>
</svg>
