<svg width="42" height="14" viewBox="0 0 42 14" fill="none" xmlns="http://www.w3.org/2000/svg">
<g clip-path="url(#clip0_654_12267)">
<path d="M16.9221 0.242416L14.7812 13.7649H18.2073L20.3482 0.242416H16.9221Z" fill="#1B1F6D"/>
<path d="M11.8979 0.242416L8.63028 9.54319L8.24296 7.53906L7.09155 1.44707C7.09155 1.44707 6.95071 0.242416 5.46479 0.242416H0.0633803L0 0.470323C1.26461 0.795863 2.4734 1.31799 3.58451 2.01864L6.56338 13.7685H10.1338L15.5845 0.242416H11.8979Z" fill="#1B1F6D"/>
<path d="M38.8524 13.7655H42.0003L39.2573 0.243034H36.5038C36.1701 0.216691 35.8369 0.300346 35.5525 0.481848C35.2682 0.66335 35.0477 0.933247 34.9228 1.25234L29.8066 13.7655H33.3806L34.0848 11.7578H38.451L38.8524 13.7655ZM35.0813 8.98309L36.8806 3.91849L37.8947 8.98309H35.0813Z" fill="#1B1F6D"/>
<path d="M30.0734 3.49457L30.5629 0.600517C29.5679 0.231394 28.5218 0.0286459 27.4643 0C25.7636 0 21.7249 0.763307 21.7249 4.47855C21.7249 7.97313 26.4643 8.01654 26.4643 9.85065C26.4643 11.6848 22.2143 11.3592 20.8094 10.2124L20.3164 13.2367C21.5422 13.7637 22.8611 14.0236 24.1896 14C26.5277 14 30.0558 12.7556 30.0558 9.36951C30.0558 5.85323 25.2742 5.52765 25.2742 3.99742C25.2742 2.46718 28.6122 2.66615 30.077 3.49457" fill="#1B1F6D"/>
<path d="M8.24296 7.54267L7.09155 1.44707C7.09155 1.44707 6.9507 0.242416 5.46479 0.242416H0.0633803L0 0.470323C1.86058 0.956497 3.59645 1.85129 5.08803 3.09306C6.50914 4.26041 7.60279 5.79476 8.25704 7.53906" fill="#FCA047"/>
</g>
<defs>
<clipPath id="clip0_654_12267">
<rect width="42" height="14" fill="white"/>
</clipPath>
</defs>
</svg>
