<svg width="72" height="72" viewBox="0 0 72 72" fill="none" xmlns="http://www.w3.org/2000/svg">
<rect x="0.5" y="0.5" width="71" height="71" rx="11.5" stroke="#BA8661"/>
<mask id="path-2-inside-1_366_14005" fill="white">
<path d="M36 23.3399C36.124 23.3371 36.2442 23.3824 36.3356 23.4663C36.4269 23.5502 36.4823 23.6662 36.49 23.79L37.56 33.6199L41.65 30.3399C41.7075 30.288 41.7824 30.2594 41.86 30.2599C41.9222 30.2608 41.9829 30.2792 42.035 30.3131C42.0872 30.3469 42.1288 30.3948 42.1549 30.4513C42.181 30.5077 42.1907 30.5704 42.1827 30.6321C42.1748 30.6938 42.1496 30.752 42.11 30.8L38.83 34.8899L48.66 35.9599C48.7926 35.9599 48.9198 36.0126 49.0135 36.1064C49.1073 36.2001 49.16 36.3273 49.16 36.4599C49.16 36.5926 49.1073 36.7198 49.0135 36.8135C48.9198 36.9073 48.7926 36.9599 48.66 36.9599L38.83 38.03L42.11 42.1199C42.1508 42.1668 42.1771 42.2246 42.1856 42.2861C42.1941 42.3477 42.1845 42.4104 42.158 42.4666C42.1315 42.5228 42.0892 42.5701 42.0363 42.6026C41.9834 42.6352 41.9221 42.6516 41.86 42.6499C41.7843 42.6499 41.7105 42.6254 41.65 42.5799L37.56 39.29L36.49 49.1299C36.49 49.2625 36.4373 49.3897 36.3435 49.4835C36.2497 49.5773 36.1226 49.6299 35.99 49.6299C35.8574 49.6299 35.7302 49.5773 35.6364 49.4835C35.5426 49.3897 35.49 49.2625 35.49 49.1299L34.42 39.29L30.33 42.5799C30.2664 42.6249 30.189 42.646 30.1114 42.6394C30.0338 42.6328 29.9611 42.599 29.906 42.5439C29.8509 42.4889 29.8171 42.4161 29.8105 42.3385C29.804 42.2609 29.825 42.1835 29.87 42.1199L33.16 38.03L23.32 36.9599C23.1874 36.9599 23.0602 36.9073 22.9664 36.8135C22.8727 36.7198 22.82 36.5926 22.82 36.4599C22.82 36.3273 22.8727 36.2001 22.9664 36.1064C23.0602 36.0126 23.1874 35.9599 23.32 35.9599L33.16 34.8899L29.87 30.8C29.8299 30.7513 29.8045 30.6922 29.7969 30.6296C29.7893 30.567 29.7998 30.5036 29.8271 30.4468C29.8545 30.3899 29.8976 30.3422 29.9512 30.3091C30.0049 30.276 30.067 30.2589 30.13 30.2599C30.2045 30.2599 30.276 30.2886 30.33 30.3399L34.42 33.6199L35.49 23.79C35.4977 23.6644 35.5544 23.5469 35.6479 23.4627C35.7415 23.3785 35.8643 23.3345 35.99 23.3399M35.99 22.3399C35.6204 22.3356 35.2626 22.4696 34.9868 22.7157C34.7111 22.9619 34.5374 23.3023 34.5 23.67L33.63 31.67L30.95 29.5099C30.718 29.322 30.4285 29.2196 30.13 29.22C29.8789 29.2215 29.6332 29.2935 29.421 29.4278C29.2088 29.5622 29.0387 29.7536 28.93 29.98C28.8239 30.204 28.7836 30.4535 28.8137 30.6996C28.8438 30.9456 28.943 31.178 29.1 31.3699L31.25 34.05L23.25 34.92C22.8522 34.92 22.4706 35.078 22.1893 35.3593C21.908 35.6406 21.75 36.0221 21.75 36.42C21.75 36.8178 21.908 37.1993 22.1893 37.4806C22.4706 37.7619 22.8522 37.92 23.25 37.92L31.25 38.79L29.1 41.47C28.943 41.6618 28.8438 41.8943 28.8137 42.1403C28.7836 42.3864 28.8239 42.6359 28.93 42.86C29.0387 43.0864 29.2088 43.2777 29.421 43.412C29.6332 43.5464 29.8789 43.6184 30.13 43.6199C30.4296 43.6166 30.719 43.5108 30.95 43.3199L33.63 41.17L34.5 49.17C34.5 49.5678 34.658 49.9493 34.9393 50.2306C35.2206 50.5119 35.6022 50.67 36 50.67C36.3978 50.67 36.7794 50.5119 37.0607 50.2306C37.342 49.9493 37.5 49.5678 37.5 49.17L38.37 41.17L41.05 43.3199C41.284 43.5122 41.5771 43.6181 41.88 43.6199C42.1294 43.6166 42.373 43.5437 42.5832 43.4094C42.7934 43.2751 42.9621 43.0849 43.07 42.86C43.1785 42.6365 43.2202 42.3864 43.19 42.1399C43.1598 41.8933 43.0591 41.6607 42.9 41.47L40.73 38.8099L48.73 37.9399C49.1278 37.9399 49.5093 37.7819 49.7906 37.5006C50.072 37.2193 50.23 36.8377 50.23 36.4399C50.23 36.0421 50.072 35.6606 49.7906 35.3793C49.5093 35.098 49.1278 34.9399 48.73 34.9399L40.73 34.0699L42.88 31.3899C43.0392 31.1992 43.1398 30.9666 43.17 30.72C43.2001 30.4734 43.1585 30.2234 43.05 29.9999C42.942 29.775 42.7735 29.5848 42.5632 29.4505C42.353 29.3162 42.1094 29.2433 41.86 29.24C41.5582 29.2381 41.265 29.3406 41.03 29.53L38.35 31.7099L37.48 23.7099C37.4427 23.344 37.2704 23.005 36.9968 22.7591C36.7232 22.5133 36.3679 22.378 36 22.3799L35.99 22.3399Z"/>
</mask>
<path d="M36 23.3399C36.124 23.3371 36.2442 23.3824 36.3356 23.4663C36.4269 23.5502 36.4823 23.6662 36.49 23.79L37.56 33.6199L41.65 30.3399C41.7075 30.288 41.7824 30.2594 41.86 30.2599C41.9222 30.2608 41.9829 30.2792 42.035 30.3131C42.0872 30.3469 42.1288 30.3948 42.1549 30.4513C42.181 30.5077 42.1907 30.5704 42.1827 30.6321C42.1748 30.6938 42.1496 30.752 42.11 30.8L38.83 34.8899L48.66 35.9599C48.7926 35.9599 48.9198 36.0126 49.0135 36.1064C49.1073 36.2001 49.16 36.3273 49.16 36.4599C49.16 36.5926 49.1073 36.7198 49.0135 36.8135C48.9198 36.9073 48.7926 36.9599 48.66 36.9599L38.83 38.03L42.11 42.1199C42.1508 42.1668 42.1771 42.2246 42.1856 42.2861C42.1941 42.3477 42.1845 42.4104 42.158 42.4666C42.1315 42.5228 42.0892 42.5701 42.0363 42.6026C41.9834 42.6352 41.9221 42.6516 41.86 42.6499C41.7843 42.6499 41.7105 42.6254 41.65 42.5799L37.56 39.29L36.49 49.1299C36.49 49.2625 36.4373 49.3897 36.3435 49.4835C36.2497 49.5773 36.1226 49.6299 35.99 49.6299C35.8574 49.6299 35.7302 49.5773 35.6364 49.4835C35.5426 49.3897 35.49 49.2625 35.49 49.1299L34.42 39.29L30.33 42.5799C30.2664 42.6249 30.189 42.646 30.1114 42.6394C30.0338 42.6328 29.9611 42.599 29.906 42.5439C29.8509 42.4889 29.8171 42.4161 29.8105 42.3385C29.804 42.2609 29.825 42.1835 29.87 42.1199L33.16 38.03L23.32 36.9599C23.1874 36.9599 23.0602 36.9073 22.9664 36.8135C22.8727 36.7198 22.82 36.5926 22.82 36.4599C22.82 36.3273 22.8727 36.2001 22.9664 36.1064C23.0602 36.0126 23.1874 35.9599 23.32 35.9599L33.16 34.8899L29.87 30.8C29.8299 30.7513 29.8045 30.6922 29.7969 30.6296C29.7893 30.567 29.7998 30.5036 29.8271 30.4468C29.8545 30.3899 29.8976 30.3422 29.9512 30.3091C30.0049 30.276 30.067 30.2589 30.13 30.2599C30.2045 30.2599 30.276 30.2886 30.33 30.3399L34.42 33.6199L35.49 23.79C35.4977 23.6644 35.5544 23.5469 35.6479 23.4627C35.7415 23.3785 35.8643 23.3345 35.99 23.3399M35.99 22.3399C35.6204 22.3356 35.2626 22.4696 34.9868 22.7157C34.7111 22.9619 34.5374 23.3023 34.5 23.67L33.63 31.67L30.95 29.5099C30.718 29.322 30.4285 29.2196 30.13 29.22C29.8789 29.2215 29.6332 29.2935 29.421 29.4278C29.2088 29.5622 29.0387 29.7536 28.93 29.98C28.8239 30.204 28.7836 30.4535 28.8137 30.6996C28.8438 30.9456 28.943 31.178 29.1 31.3699L31.25 34.05L23.25 34.92C22.8522 34.92 22.4706 35.078 22.1893 35.3593C21.908 35.6406 21.75 36.0221 21.75 36.42C21.75 36.8178 21.908 37.1993 22.1893 37.4806C22.4706 37.7619 22.8522 37.92 23.25 37.92L31.25 38.79L29.1 41.47C28.943 41.6618 28.8438 41.8943 28.8137 42.1403C28.7836 42.3864 28.8239 42.6359 28.93 42.86C29.0387 43.0864 29.2088 43.2777 29.421 43.412C29.6332 43.5464 29.8789 43.6184 30.13 43.6199C30.4296 43.6166 30.719 43.5108 30.95 43.3199L33.63 41.17L34.5 49.17C34.5 49.5678 34.658 49.9493 34.9393 50.2306C35.2206 50.5119 35.6022 50.67 36 50.67C36.3978 50.67 36.7794 50.5119 37.0607 50.2306C37.342 49.9493 37.5 49.5678 37.5 49.17L38.37 41.17L41.05 43.3199C41.284 43.5122 41.5771 43.6181 41.88 43.6199C42.1294 43.6166 42.373 43.5437 42.5832 43.4094C42.7934 43.2751 42.9621 43.0849 43.07 42.86C43.1785 42.6365 43.2202 42.3864 43.19 42.1399C43.1598 41.8933 43.0591 41.6607 42.9 41.47L40.73 38.8099L48.73 37.9399C49.1278 37.9399 49.5093 37.7819 49.7906 37.5006C50.072 37.2193 50.23 36.8377 50.23 36.4399C50.23 36.0421 50.072 35.6606 49.7906 35.3793C49.5093 35.098 49.1278 34.9399 48.73 34.9399L40.73 34.0699L42.88 31.3899C43.0392 31.1992 43.1398 30.9666 43.17 30.72C43.2001 30.4734 43.1585 30.2234 43.05 29.9999C42.942 29.775 42.7735 29.5848 42.5632 29.4505C42.353 29.3162 42.1094 29.2433 41.86 29.24C41.5582 29.2381 41.265 29.3406 41.03 29.53L38.35 31.7099L37.48 23.7099C37.4427 23.344 37.2704 23.005 36.9968 22.7591C36.7232 22.5133 36.3679 22.378 36 22.3799L35.99 22.3399Z" fill="#C28B7B"/>
<path d="M36.49 23.79L35.4919 23.8522L35.4934 23.8752L35.4959 23.8982L36.49 23.79ZM37.56 33.6199L36.5659 33.7281L36.7632 35.5408L38.1856 34.4L37.56 33.6199ZM41.65 30.3399L42.2756 31.1201L42.2986 31.1016L42.3205 31.0819L41.65 30.3399ZM41.86 30.2599L41.8737 29.26L41.8669 29.26L41.86 30.2599ZM42.11 30.8L41.3386 30.1635L41.3299 30.1743L42.11 30.8ZM38.83 34.8899L38.0498 34.2643L36.9091 35.6868L38.7217 35.8841L38.83 34.8899ZM48.66 35.9599L48.5518 36.9541L48.6057 36.9599H48.66V35.9599ZM48.66 36.9599V35.9599H48.6057L48.5518 35.9658L48.66 36.9599ZM38.83 38.03L38.7217 37.0358L36.9091 37.2331L38.0498 38.6556L38.83 38.03ZM42.11 42.1199L41.3299 42.7455L41.3425 42.7613L41.3558 42.7765L42.11 42.1199ZM41.86 42.6499L41.887 41.6503L41.8735 41.6499H41.86V42.6499ZM41.65 42.5799L41.0232 43.3591L41.0364 43.3698L41.05 43.3799L41.65 42.5799ZM37.56 39.29L38.1868 38.5108L36.7633 37.3658L36.5659 39.1819L37.56 39.29ZM36.49 49.1299L35.4959 49.0218L35.49 49.0757V49.1299H36.49ZM35.49 49.1299H36.49V49.0757L36.4841 49.0218L35.49 49.1299ZM34.42 39.29L35.4141 39.1819L35.2166 37.3658L33.7932 38.5108L34.42 39.29ZM30.33 42.5799L30.9076 43.3962L30.9327 43.3784L30.9567 43.3591L30.33 42.5799ZM29.87 42.1199L29.0908 41.4931L29.0715 41.5171L29.0537 41.5422L29.87 42.1199ZM33.16 38.03L33.9392 38.6567L35.0842 37.2333L33.2681 37.0358L33.16 38.03ZM23.32 36.9599L23.4281 35.9658L23.3742 35.9599H23.32V36.9599ZM23.32 35.9599V36.9599H23.3742L23.4281 36.9541L23.32 35.9599ZM33.16 34.8899L33.2681 35.8841L35.0842 35.6866L33.9392 34.2632L33.16 34.8899ZM29.87 30.8L30.6492 30.1731L30.6413 30.1635L29.87 30.8ZM30.13 30.2599L30.1134 31.2598L30.1217 31.2599H30.13V30.2599ZM30.33 30.3399L29.6403 31.0641L29.6711 31.0934L29.7043 31.1201L30.33 30.3399ZM34.42 33.6199L33.7944 34.4L35.2168 35.5408L35.4141 33.7281L34.42 33.6199ZM35.49 23.79L36.4841 23.8982L36.4867 23.8749L36.4881 23.8515L35.49 23.79ZM35.99 22.3399L36.96 22.0971L36.7728 21.3492L36.0019 21.34L35.99 22.3399ZM34.5 23.67L35.4942 23.7781L35.4949 23.7712L34.5 23.67ZM33.63 31.67L33.0025 32.4486L34.4264 33.5962L34.6241 31.7781L33.63 31.67ZM30.95 29.5099L30.3204 30.2869L30.3224 30.2885L30.95 29.5099ZM30.13 29.22L30.1288 28.2199L30.124 28.22L30.13 29.22ZM28.93 29.98L28.0285 29.5471L28.0262 29.552L28.93 29.98ZM29.1 31.3699L29.88 30.7441L29.874 30.7368L29.1 31.3699ZM31.25 34.05L31.3581 35.0441L33.1714 34.8469L32.03 33.4242L31.25 34.05ZM23.25 34.92V35.92H23.3042L23.3581 35.9141L23.25 34.92ZM23.25 37.92L23.3581 36.9258L23.3042 36.92H23.25V37.92ZM31.25 38.79L32.03 39.4157L33.1714 37.993L31.3581 37.7958L31.25 38.79ZM29.1 41.47L29.8741 42.1031L29.88 42.0957L29.1 41.47ZM28.93 42.86L28.0262 43.2879L28.0285 43.2928L28.93 42.86ZM30.13 43.6199L30.124 44.6199L30.1325 44.6199L30.141 44.6199L30.13 43.6199ZM30.95 43.3199L30.3242 42.5399L30.3186 42.5444L30.313 42.549L30.95 43.3199ZM33.63 41.17L34.6241 41.0619L34.427 39.2486L33.0043 40.3899L33.63 41.17ZM34.5 49.17H35.5V49.1158L35.4941 49.0619L34.5 49.17ZM37.5 49.17L36.5059 49.0619L36.5 49.1158V49.17H37.5ZM38.37 41.17L38.9957 40.3899L37.573 39.2486L37.3759 41.0619L38.37 41.17ZM41.05 43.3199L41.6848 42.5472L41.6757 42.5399L41.05 43.3199ZM41.88 43.6199L41.874 44.6199L41.8837 44.62L41.8935 44.6198L41.88 43.6199ZM43.07 42.86L42.1704 42.4232L42.1685 42.4272L43.07 42.86ZM42.9 41.47L42.125 42.1021L42.1322 42.1107L42.9 41.47ZM40.73 38.8099L40.6219 37.8158L38.7909 38.0149L39.9551 39.442L40.73 38.8099ZM48.73 37.9399V36.9399H48.6758L48.6219 36.9458L48.73 37.9399ZM48.73 34.9399L48.6219 35.9341L48.6758 35.9399H48.73V34.9399ZM40.73 34.0699L39.95 33.4442L38.8086 34.8669L40.6219 35.0641L40.73 34.0699ZM42.88 31.3899L42.1122 30.7492L42.106 30.7566L42.1 30.7642L42.88 31.3899ZM43.05 29.9999L42.1485 30.4327L42.1504 30.4367L43.05 29.9999ZM41.86 29.24L41.8734 28.24L41.8661 28.24L41.86 29.24ZM41.03 29.53L40.4025 28.7513L40.3989 28.7542L41.03 29.53ZM38.35 31.7099L37.3558 31.8181L37.5546 33.646L38.981 32.4857L38.35 31.7099ZM37.48 23.7099L36.4851 23.8113L36.4858 23.8181L37.48 23.7099ZM36 22.3799L35.0299 22.6228L35.2205 23.384L36.0051 23.3799L36 22.3799ZM36.0228 24.3397C35.8884 24.3428 35.7581 24.2936 35.6592 24.2028L37.012 22.7298C36.7304 22.4712 36.3596 22.3315 35.9772 22.3402L36.0228 24.3397ZM35.6592 24.2028C35.5603 24.112 35.5003 23.9864 35.4919 23.8522L37.4881 23.7277C37.4642 23.346 37.2936 22.9884 37.012 22.7298L35.6592 24.2028ZM35.4959 23.8982L36.5659 33.7281L38.5541 33.5117L37.4841 23.6817L35.4959 23.8982ZM38.1856 34.4L42.2756 31.1201L41.0243 29.5598L36.9344 32.8398L38.1856 34.4ZM42.3205 31.0819C42.1925 31.1975 42.0257 31.2611 41.8531 31.2599L41.8669 29.26C41.5392 29.2577 41.2225 29.3784 40.9795 29.598L42.3205 31.0819ZM41.8463 31.2598C41.7195 31.2581 41.5963 31.2205 41.4908 31.152L42.5793 29.4742C42.3694 29.338 42.1249 29.2635 41.8737 29.26L41.8463 31.2598ZM41.4908 31.152C41.385 31.0834 41.3006 30.9862 41.2474 30.8714L43.0624 30.0312C42.957 29.8035 42.7894 29.6105 42.5793 29.4742L41.4908 31.152ZM41.2474 30.8714C41.1944 30.7569 41.1748 30.6296 41.1909 30.5043L43.1745 30.7599C43.2066 30.5112 43.1677 30.2586 43.0624 30.0312L41.2474 30.8714ZM41.1909 30.5043C41.207 30.3793 41.2581 30.2612 41.3387 30.1635L42.8813 31.4364C43.041 31.2428 43.1425 31.0082 43.1745 30.7599L41.1909 30.5043ZM41.3299 30.1743L38.0498 34.2643L39.6101 35.5156L42.8901 31.4256L41.3299 30.1743ZM38.7217 35.8841L48.5518 36.9541L48.7682 34.9658L38.9382 33.8958L38.7217 35.8841ZM48.66 36.9599C48.5275 36.9599 48.4003 36.9074 48.3064 36.8135L49.7207 35.3993C49.4392 35.1178 49.0576 34.9599 48.66 34.9599V36.9599ZM48.3064 36.8135C48.2126 36.7196 48.16 36.5924 48.16 36.4599H50.16C50.16 36.0623 50.0021 35.6807 49.7207 35.3993L48.3064 36.8135ZM48.16 36.4599C48.16 36.3275 48.2126 36.2003 48.3064 36.1064L49.7207 37.5206C50.0021 37.2392 50.16 36.8576 50.16 36.4599H48.16ZM48.3064 36.1064C48.4003 36.0125 48.5275 35.9599 48.66 35.9599V37.9599C49.0576 37.9599 49.4392 37.8021 49.7207 37.5206L48.3064 36.1064ZM48.5518 35.9658L38.7217 37.0358L38.9382 39.0241L48.7682 37.9541L48.5518 35.9658ZM38.0498 38.6556L41.3299 42.7455L42.8901 41.4943L39.6101 37.4043L38.0498 38.6556ZM41.3558 42.7765C41.269 42.6769 41.2132 42.5542 41.1951 42.4235L43.1761 42.1488C43.1409 41.8949 43.0326 41.6567 42.8642 41.4633L41.3558 42.7765ZM41.1951 42.4235C41.1769 42.2922 41.1974 42.159 41.2536 42.04L43.0625 42.8932C43.1716 42.6617 43.2114 42.4031 43.1761 42.1488L41.1951 42.4235ZM41.2536 42.04C41.3097 41.9209 41.3995 41.8203 41.5123 41.7509L42.5603 43.4544C42.779 43.3198 42.9533 43.1247 43.0625 42.8932L41.2536 42.04ZM41.5123 41.7509C41.6251 41.6815 41.7553 41.6468 41.887 41.6503L41.833 43.6496C42.0889 43.6565 42.3417 43.5889 42.5603 43.4544L41.5123 41.7509ZM41.86 41.6499C42.0006 41.6499 42.1375 41.6956 42.25 41.7799L41.05 43.3799C41.2836 43.5552 41.5679 43.6499 41.86 43.6499V41.6499ZM42.2767 41.8007L38.1868 38.5108L36.9332 40.0692L41.0232 43.3591L42.2767 41.8007ZM36.5659 39.1819L35.4959 49.0218L37.4841 49.238L38.5541 39.3981L36.5659 39.1819ZM35.49 49.1299C35.49 48.9972 35.5427 48.8701 35.6364 48.7764L37.0506 50.1906C37.3318 49.9094 37.49 49.5279 37.49 49.1299H35.49ZM35.6364 48.7764C35.7302 48.6826 35.8574 48.6299 35.99 48.6299V50.6299C36.3878 50.6299 36.7693 50.4719 37.0506 50.1906L35.6364 48.7764ZM35.99 48.6299C36.1224 48.6299 36.2496 48.6825 36.3435 48.7764L34.9293 50.1906C35.2107 50.472 35.5923 50.6299 35.99 50.6299V48.6299ZM36.3435 48.7764C36.4374 48.8703 36.49 48.9975 36.49 49.1299H34.49C34.49 49.5276 34.6479 49.9092 34.9293 50.1906L36.3435 48.7764ZM36.4841 49.0218L35.4141 39.1819L33.4258 39.3981L34.4959 49.238L36.4841 49.0218ZM33.7932 38.5108L29.7032 41.8007L30.9567 43.3591L35.0468 40.0692L33.7932 38.5108ZM29.7523 41.7637C29.8813 41.6724 30.0385 41.6296 30.1961 41.643L30.0267 43.6358C30.3395 43.6624 30.6515 43.5775 30.9076 43.3962L29.7523 41.7637ZM30.1961 41.643C30.3536 41.6564 30.5013 41.725 30.6131 41.8368L29.1989 43.251C29.4208 43.4729 29.714 43.6092 30.0267 43.6358L30.1961 41.643ZM30.6131 41.8368C30.7251 41.9488 30.7936 42.0965 30.807 42.2538L28.8141 42.4231C28.8407 42.7356 28.9768 43.029 29.1989 43.251L30.6131 41.8368ZM30.807 42.2538C30.8203 42.4114 30.7776 42.5686 30.6863 42.6976L29.0537 41.5422C28.8725 41.7984 28.7876 42.1104 28.8141 42.4231L30.807 42.2538ZM30.6492 42.7467L33.9392 38.6567L32.3808 37.4032L29.0908 41.4931L30.6492 42.7467ZM33.2681 37.0358L23.4281 35.9658L23.2119 37.9541L33.0519 39.0241L33.2681 37.0358ZM23.32 35.9599C23.4524 35.9599 23.5797 36.0125 23.6735 36.1064L22.2593 37.5206C22.5407 37.8021 22.9224 37.9599 23.32 37.9599V35.9599ZM23.6735 36.1064C23.7674 36.2003 23.82 36.3275 23.82 36.4599H21.82C21.82 36.8576 21.9779 37.2392 22.2593 37.5206L23.6735 36.1064ZM23.82 36.4599C23.82 36.5924 23.7674 36.7196 23.6735 36.8135L22.2593 35.3993C21.9779 35.6807 21.82 36.0623 21.82 36.4599H23.82ZM23.6735 36.8135C23.5797 36.9074 23.4524 36.9599 23.32 36.9599V34.9599C22.9224 34.9599 22.5407 35.1178 22.2593 35.3993L23.6735 36.8135ZM23.4281 36.9541L33.2681 35.8841L33.0519 33.8958L23.2119 34.9658L23.4281 36.9541ZM33.9392 34.2632L30.6492 30.1732L29.0908 31.4268L32.3808 35.5167L33.9392 34.2632ZM30.6413 30.1635C30.7225 30.2619 30.7742 30.3819 30.7896 30.5093L28.8041 30.7499C28.8348 31.0026 28.9372 31.2407 29.0987 31.4365L30.6413 30.1635ZM30.7896 30.5093C30.805 30.6364 30.7837 30.7653 30.7282 30.8806L28.9261 30.0129C28.8159 30.2419 28.7736 30.4976 28.8041 30.7499L30.7896 30.5093ZM30.7282 30.8806C30.6726 30.996 30.5851 31.093 30.4762 31.1602L29.4262 29.458C29.21 29.5913 29.0364 29.7839 28.9261 30.0129L30.7282 30.8806ZM30.4762 31.1602C30.3676 31.2272 30.2417 31.2619 30.1134 31.2598L30.1466 29.2601C29.8922 29.2558 29.6422 29.3247 29.4262 29.458L30.4762 31.1602ZM30.13 31.2599C29.9474 31.2599 29.7721 31.1896 29.6403 31.0641L31.0196 29.6158C30.78 29.3876 30.4616 29.2599 30.13 29.2599V31.2599ZM29.7043 31.1201L33.7944 34.4L35.0456 32.8398L30.9556 29.5598L29.7043 31.1201ZM35.4141 33.7281L36.4841 23.8982L34.4959 23.6817L33.4259 33.5117L35.4141 33.7281ZM36.4881 23.8515C36.4797 23.9873 36.4184 24.1147 36.3169 24.206L34.979 22.7194C34.6905 22.979 34.5157 23.3415 34.4919 23.7284L36.4881 23.8515ZM36.3169 24.206C36.2155 24.2973 36.0824 24.3449 35.9464 24.339L36.0336 22.3409C35.6462 22.324 35.2674 22.4598 34.979 22.7194L36.3169 24.206ZM36.0019 21.34C35.3826 21.3326 34.7829 21.5573 34.3209 21.9697L35.6527 23.4618C35.7422 23.3819 35.8583 23.3385 35.9781 23.3399L36.0019 21.34ZM34.3209 21.9697C33.8588 22.3822 33.5679 22.9526 33.5051 23.5687L35.4949 23.7712C35.507 23.652 35.5633 23.5416 35.6527 23.4618L34.3209 21.9697ZM33.5059 23.5619L32.6359 31.5619L34.6241 31.7781L35.4941 23.7781L33.5059 23.5619ZM34.2575 30.8914L31.5775 28.7313L30.3224 30.2885L33.0025 32.4486L34.2575 30.8914ZM31.5795 28.733C31.1692 28.4005 30.657 28.2193 30.1288 28.22L30.1312 30.22C30.2001 30.2199 30.2668 30.2435 30.3204 30.2869L31.5795 28.733ZM30.124 28.22C29.6856 28.2226 29.2566 28.3483 28.886 28.583L29.9561 30.2727C30.0098 30.2386 30.0722 30.2203 30.136 30.2199L30.124 28.22ZM28.886 28.583C28.5154 28.8177 28.2183 29.1518 28.0285 29.5471L29.8315 30.4128C29.8591 30.3553 29.9023 30.3067 29.9561 30.2727L28.886 28.583ZM28.0262 29.552C27.8392 29.947 27.768 30.387 27.8211 30.821L29.8063 30.5782C29.7991 30.52 29.8087 30.461 29.8338 30.4079L28.0262 29.552ZM27.8211 30.821C27.8741 31.2549 28.0492 31.6647 28.3259 32.0031L29.874 30.7368C29.8369 30.6914 29.8134 30.6364 29.8063 30.5782L27.8211 30.821ZM28.32 31.9957L30.47 34.6757L32.03 33.4242L29.88 30.7442L28.32 31.9957ZM31.1419 33.0558L23.1419 33.9258L23.3581 35.9141L31.3581 35.0441L31.1419 33.0558ZM23.25 33.92C22.587 33.92 21.9511 34.1833 21.4822 34.6522L22.8964 36.0664C22.9902 35.9727 23.1174 35.92 23.25 35.92V33.92ZM21.4822 34.6522C21.0134 35.121 20.75 35.7569 20.75 36.42H22.75C22.75 36.2873 22.8027 36.1602 22.8964 36.0664L21.4822 34.6522ZM20.75 36.42C20.75 37.083 21.0134 37.7189 21.4822 38.1877L22.8964 36.7735C22.8027 36.6797 22.75 36.5526 22.75 36.42H20.75ZM21.4822 38.1877C21.951 38.6565 22.5869 38.92 23.25 38.92V36.92C23.1175 36.92 22.9903 36.8673 22.8964 36.7735L21.4822 38.1877ZM23.1419 38.9141L31.1419 39.7841L31.3581 37.7958L23.3581 36.9258L23.1419 38.9141ZM30.47 38.1642L28.32 40.8442L29.88 42.0957L32.03 39.4157L30.47 38.1642ZM28.3259 40.8368C28.0492 41.1751 27.8741 41.585 27.8211 42.0189L29.8063 42.2617C29.8134 42.2035 29.8369 42.1485 29.874 42.1031L28.3259 40.8368ZM27.8211 42.0189C27.768 42.4528 27.8391 42.8929 28.0262 43.2879L29.8338 42.432C29.8087 42.379 29.7991 42.3199 29.8063 42.2617L27.8211 42.0189ZM28.0285 43.2928C28.2184 43.6882 28.5155 44.0222 28.886 44.2569L29.9561 42.5672C29.9022 42.5331 29.859 42.4845 29.8315 42.4272L28.0285 43.2928ZM28.886 44.2569C29.2566 44.4916 29.6856 44.6173 30.124 44.6199L30.136 42.6199C30.0722 42.6196 30.0098 42.6013 29.9561 42.5672L28.886 44.2569ZM30.141 44.6199C30.6693 44.6141 31.1796 44.4274 31.5869 44.0909L30.313 42.549C30.2584 42.5942 30.1899 42.6192 30.119 42.62L30.141 44.6199ZM31.5757 44.1L34.2557 41.95L33.0043 40.3899L30.3242 42.5399L31.5757 44.1ZM32.6359 41.2781L33.5059 49.2781L35.4941 49.0619L34.6241 41.0619L32.6359 41.2781ZM33.5 49.17C33.5 49.833 33.7634 50.4689 34.2322 50.9377L35.6464 49.5235C35.5527 49.4297 35.5 49.3026 35.5 49.17H33.5ZM34.2322 50.9377C34.701 51.4065 35.3369 51.67 36 51.67V49.67C35.8675 49.67 35.7403 49.6173 35.6464 49.5235L34.2322 50.9377ZM36 51.67C36.6631 51.67 37.299 51.4065 37.7678 50.9377L36.3536 49.5235C36.2597 49.6173 36.1325 49.67 36 49.67V51.67ZM37.7678 50.9377C38.2366 50.4689 38.5 49.833 38.5 49.17H36.5C36.5 49.3026 36.4473 49.4297 36.3536 49.5235L37.7678 50.9377ZM38.4941 49.2781L39.3641 41.2781L37.3759 41.0619L36.5059 49.0619L38.4941 49.2781ZM37.7442 41.95L40.4242 44.0999L41.6757 42.5399L38.9957 40.3899L37.7442 41.95ZM40.4152 44.0926C40.8266 44.4306 41.3417 44.6167 41.874 44.6199L41.886 42.6199C41.8125 42.6195 41.7415 42.5938 41.6847 42.5472L40.4152 44.0926ZM41.8935 44.6198C42.329 44.614 42.7542 44.4867 43.1214 44.2522L42.0449 42.5666C41.9917 42.6007 41.9299 42.6192 41.8665 42.62L41.8935 44.6198ZM43.1214 44.2522C43.4885 44.0178 43.783 43.6855 43.9715 43.2927L42.1685 42.4272C42.1411 42.4842 42.0984 42.5325 42.0449 42.5666L43.1214 44.2522ZM43.9696 43.2968C44.1622 42.9 44.2361 42.4561 44.1826 42.0185L42.1974 42.2613C42.2042 42.3168 42.1948 42.373 42.1704 42.4232L43.9696 43.2968ZM44.1826 42.0185C44.1291 41.5807 43.9503 41.1678 43.6677 40.8292L42.1322 42.1107C42.168 42.1536 42.1906 42.2059 42.1974 42.2613L44.1826 42.0185ZM43.6748 40.8378L41.5049 38.1778L39.9551 39.442L42.1251 42.1021L43.6748 40.8378ZM40.8381 39.8041L48.8381 38.9341L48.6219 36.9458L40.6219 37.8158L40.8381 39.8041ZM48.73 38.9399C49.393 38.9399 50.0289 38.6766 50.4978 38.2077L49.0835 36.7935C48.9898 36.8872 48.8626 36.9399 48.73 36.9399V38.9399ZM50.4978 38.2077C50.9666 37.7388 51.23 37.1029 51.23 36.4399H49.23C49.23 36.5726 49.1773 36.6997 49.0835 36.7935L50.4978 38.2077ZM51.23 36.4399C51.23 35.7769 50.9666 35.141 50.4978 34.6721L49.0835 36.0864C49.1773 36.1801 49.23 36.3073 49.23 36.4399H51.23ZM50.4978 34.6721C50.0289 34.2033 49.393 33.9399 48.73 33.9399V35.9399C48.8626 35.9399 48.9898 35.9926 49.0835 36.0864L50.4978 34.6721ZM48.8381 33.9458L40.8381 33.0758L40.6219 35.0641L48.6219 35.9341L48.8381 33.9458ZM41.51 34.6957L43.66 32.0157L42.1 30.7642L39.95 33.4442L41.51 34.6957ZM43.6478 32.0307C43.9304 31.692 44.1091 31.279 44.1626 30.8414L42.1774 30.5986C42.1706 30.6542 42.1479 30.7064 42.1122 30.7492L43.6478 32.0307ZM44.1626 30.8414C44.2161 30.4038 44.1422 29.9599 43.9495 29.5631L42.1504 30.4367C42.1748 30.4869 42.1842 30.5431 42.1774 30.5986L44.1626 30.8414ZM43.9515 29.5672C43.763 29.1745 43.4686 28.8422 43.1015 28.6077L42.025 30.2933C42.0783 30.3273 42.1211 30.3756 42.1485 30.4327L43.9515 29.5672ZM43.1015 28.6077C42.7342 28.3732 42.3089 28.2459 41.8734 28.2401L41.8465 30.2399C41.9099 30.2407 41.9717 30.2593 42.025 30.2933L43.1015 28.6077ZM41.8661 28.24C41.3339 28.2368 40.8169 28.4173 40.4025 28.7513L41.6575 30.3086C41.713 30.2638 41.7824 30.2395 41.8539 30.24L41.8661 28.24ZM40.3989 28.7542L37.7189 30.9342L38.981 32.4857L41.661 30.3057L40.3989 28.7542ZM39.3441 31.6018L38.4741 23.6018L36.4858 23.8181L37.3558 31.8181L39.3441 31.6018ZM38.4748 23.6086C38.4124 22.9953 38.1237 22.4273 37.6652 22.0153L36.3284 23.5029C36.4172 23.5827 36.473 23.6926 36.4851 23.8113L38.4748 23.6086ZM37.6652 22.0153C37.2068 21.6034 36.6114 21.3768 35.9949 21.3799L36.0051 23.3799C36.1243 23.3793 36.2396 23.4231 36.3284 23.5029L37.6652 22.0153ZM36.9701 22.137L36.96 22.0971L35.0199 22.5828L35.0299 22.6228L36.9701 22.137Z" fill="#BA8661" mask="url(#path-2-inside-1_366_14005)"/>
<path d="M43.3815 60.5684L43.3625 60.5648L43.3433 60.5627L37.4226 59.9163L36.7768 53.9921C36.7597 53.7973 36.669 53.6159 36.5226 53.4852C36.3855 53.3627 36.2095 53.2938 36.0268 53.2898L36.2204 53.2896C36.3335 53.3218 36.4388 53.3795 36.5278 53.4593C36.6704 53.5874 36.7609 53.7635 36.782 53.9541C36.782 53.9542 36.782 53.9543 36.7821 53.9545L37.382 59.4837L37.4254 59.8835L37.8252 59.9268L43.3504 60.5264C43.5375 60.5508 43.7095 60.6422 43.8343 60.7838C43.96 60.9262 44.0294 61.1097 44.0294 61.2998C44.0294 61.3299 44.0276 61.3599 44.0242 61.3895C44.025 61.3747 44.0255 61.3597 44.0255 61.3448C44.0255 61.1606 43.9611 60.9823 43.8435 60.8405L43.4587 61.1597L43.8435 60.8405C43.7261 60.6988 43.5627 60.6025 43.3815 60.5684ZM34.173 59.9569L34.5657 59.9143L34.5655 59.9163L28.6448 60.5627L28.6256 60.5648L28.6066 60.5684C28.4253 60.6025 28.262 60.699 28.1446 60.8405C28.1038 60.8897 28.0694 60.9433 28.0419 61.0001C28.0732 60.933 28.1141 60.8702 28.1638 60.8138C28.2888 60.6722 28.4607 60.5808 28.6477 60.5563L34.173 59.9569ZM36.0041 69.3768C35.9869 69.3768 35.9698 69.3762 35.9527 69.3751C35.9665 69.3758 35.9803 69.3762 35.9941 69.3762C36.1782 69.3762 36.3566 69.3118 36.4984 69.1942C36.6402 69.0766 36.7364 68.9131 36.7704 68.7322L36.774 68.7132L36.7761 68.694L37.0565 66.1261L36.782 68.6558L36.7819 68.6558L36.781 68.6656C36.7638 68.8598 36.6745 69.0405 36.5307 69.1721C36.3869 69.3038 36.199 69.3768 36.0041 69.3768Z" fill="#C28B7B" stroke="#BA8661"/>
<path d="M43.8451 10.5702C43.8263 10.5476 43.8064 10.5262 43.7854 10.5059C43.8165 10.5308 43.8458 10.5582 43.8729 10.5879C44.0046 10.7317 44.0776 10.9196 44.0776 11.1146C44.0776 11.3095 44.0046 11.4973 43.8729 11.6412C43.7413 11.785 43.5606 11.8743 43.3664 11.8915L43.3664 11.8914L43.3566 11.8924L37.8267 12.4925L37.4269 12.5359L37.3835 12.9356L36.7835 18.4656L36.7834 18.4656L36.7825 18.4754C36.7653 18.6696 36.676 18.8503 36.5322 18.9819C36.3884 19.1135 36.2005 19.1865 36.0056 19.1865C35.8107 19.1865 35.6228 19.1135 35.4789 18.9819C35.3493 18.8632 35.264 18.7047 35.2358 18.5324C35.2793 18.6851 35.368 18.8218 35.4912 18.924L35.8104 18.5391L35.4912 18.924C35.6331 19.0416 35.8116 19.1059 35.9956 19.1059C36.1798 19.1059 36.3581 19.0416 36.4999 18.924L36.1807 18.5391L36.4999 18.924C36.6418 18.8063 36.7379 18.6429 36.772 18.462L36.7755 18.443L36.7776 18.4238L37.424 12.503L43.3449 11.8566L43.3641 11.8545L43.383 11.8509C43.5642 11.8169 43.7276 11.7205 43.8451 11.5788L43.4602 11.2596L43.8451 11.5788C43.9627 11.4371 44.027 11.2587 44.027 11.0745C44.027 10.8904 43.9627 10.712 43.8451 10.5702L43.4602 10.8894L43.8451 10.5702ZM36.7836 3.76422L37.058 6.29314L36.7784 3.73223C36.7779 3.72713 36.7775 3.72205 36.7769 3.71697C36.7796 3.73249 36.7818 3.74812 36.7835 3.76386C36.7836 3.76398 36.7836 3.7641 36.7836 3.76422ZM27.9336 11.1146C27.9336 10.9428 27.9903 10.7764 28.0939 10.6409C28.0096 10.7692 27.9642 10.9198 27.9642 11.0745C27.9642 11.2587 28.0286 11.4371 28.1462 11.5788C28.2635 11.7203 28.4268 11.8168 28.6081 11.8509L28.6271 11.8545L28.6463 11.8566L34.5671 12.503L34.5705 12.5344L34.1846 12.4925L28.6545 11.8924L28.6545 11.8923L28.6447 11.8915C28.4505 11.8743 28.2699 11.785 28.1382 11.6412C28.0066 11.4973 27.9336 11.3095 27.9336 11.1146Z" fill="#C28B7B" stroke="#BA8661"/>
<mask id="path-6-inside-2_366_14005" fill="white">
<path d="M10.5197 26.6097C10.6066 26.6068 10.6914 26.6373 10.7565 26.695C10.8216 26.7526 10.8621 26.8331 10.8698 26.9197L11.6298 33.9197V34.3697L14.4797 32.0697C14.5244 32.0399 14.5762 32.0226 14.6298 32.0197C14.6726 32.0223 14.714 32.0364 14.7496 32.0605C14.7852 32.0845 14.8136 32.1177 14.832 32.1565C14.8504 32.1954 14.858 32.2384 14.8541 32.2812C14.8502 32.3239 14.8349 32.3649 14.8098 32.3997L12.1697 35.6797L16.3497 36.1297C16.4107 36.1297 16.4693 36.1539 16.5124 36.1971C16.5555 36.2402 16.5797 36.2987 16.5797 36.3597C16.5797 36.4207 16.5555 36.4792 16.5124 36.5223C16.4693 36.5655 16.4107 36.5897 16.3497 36.5897L12.1697 37.0397L14.8098 40.3197C14.8349 40.3545 14.8502 40.3955 14.8541 40.4383C14.858 40.481 14.8504 40.5241 14.832 40.5629C14.8136 40.6017 14.7852 40.6348 14.7496 40.6589C14.714 40.683 14.6726 40.6971 14.6298 40.6997C14.5762 40.6967 14.5244 40.6795 14.4797 40.6497L11.5797 38.3197L10.8698 44.8897C10.8621 44.9763 10.8216 45.0568 10.7565 45.1144C10.6914 45.1721 10.6066 45.2026 10.5197 45.1997C10.4764 45.2024 10.4329 45.1965 10.3918 45.1824C10.3508 45.1683 10.3129 45.1462 10.2804 45.1173C10.2479 45.0885 10.2213 45.0536 10.2023 45.0146C10.1833 44.9755 10.1723 44.9331 10.1697 44.8897L9.44971 38.3197L6.54974 40.6497C6.50955 40.6808 6.46051 40.6983 6.40973 40.6997C6.36685 40.6971 6.3255 40.683 6.28992 40.6589C6.25434 40.6348 6.22585 40.6017 6.20746 40.5629C6.18907 40.5241 6.18144 40.481 6.18536 40.4383C6.18928 40.3955 6.2046 40.3545 6.22974 40.3197L8.86975 37.0397L4.67975 36.5897C4.61875 36.5897 4.56022 36.5655 4.51709 36.5223C4.47396 36.4792 4.44971 36.4207 4.44971 36.3597C4.44971 36.2987 4.47396 36.2402 4.51709 36.1971C4.56022 36.1539 4.61875 36.1297 4.67975 36.1297L8.86975 35.6797L6.22974 32.3997C6.2046 32.3649 6.18928 32.3239 6.18536 32.2812C6.18144 32.2384 6.18907 32.1954 6.20746 32.1565C6.22585 32.1177 6.25434 32.0845 6.28992 32.0605C6.3255 32.0364 6.36685 32.0223 6.40973 32.0197C6.46051 32.0211 6.50955 32.0386 6.54974 32.0697L9.40973 34.3697V33.9197L10.1697 26.9197C10.1723 26.8764 10.1833 26.8339 10.2023 26.7948C10.2213 26.7558 10.2479 26.7208 10.2804 26.692C10.3129 26.6632 10.3508 26.6411 10.3918 26.627C10.4329 26.6129 10.4764 26.607 10.5197 26.6097ZM10.5197 25.6097C10.1867 25.6056 9.86421 25.7266 9.61609 25.9488C9.36797 26.171 9.21228 26.4782 9.17975 26.8097L8.57971 32.3697L7.17975 31.2497C7.03593 31.1336 6.86764 31.0518 6.68756 31.0103C6.50748 30.9688 6.32029 30.9688 6.1402 31.0102C5.9601 31.0516 5.79182 31.1334 5.64795 31.2494C5.50408 31.3653 5.38844 31.5125 5.30975 31.6797C5.2071 31.8861 5.16661 32.118 5.19324 32.347C5.21987 32.576 5.31244 32.7923 5.45972 32.9697L6.95972 34.8397L4.57971 35.0997C4.28558 35.1376 4.01537 35.2813 3.81952 35.504C3.62367 35.7267 3.51562 36.0131 3.51562 36.3097C3.51562 36.6062 3.62367 36.8927 3.81952 37.1154C4.01537 37.3381 4.28558 37.4818 4.57971 37.5197L6.95972 37.7797L5.45972 39.6497C5.31244 39.8271 5.21987 40.0434 5.19324 40.2724C5.16661 40.5015 5.2071 40.7332 5.30975 40.9397C5.38844 41.1069 5.50408 41.2541 5.64795 41.37C5.79182 41.486 5.9601 41.5678 6.1402 41.6092C6.32029 41.6506 6.50748 41.6506 6.68756 41.6091C6.86764 41.5676 7.03593 41.4857 7.17975 41.3697L8.65973 40.1797L9.17975 44.9397C9.2198 45.2669 9.37816 45.5681 9.625 45.7866C9.87184 46.0051 10.1901 46.1257 10.5197 46.1257C10.8494 46.1257 11.1676 46.0051 11.4145 45.7866C11.6613 45.5681 11.8197 45.2669 11.8597 44.9397L12.3698 40.1797L13.8597 41.3697C14.0774 41.5461 14.3496 41.6416 14.6298 41.6397C14.8651 41.6476 15.0977 41.5878 15.3 41.4674C15.5024 41.347 15.666 41.1711 15.7713 40.9605C15.8766 40.7499 15.9192 40.5135 15.8941 40.2793C15.869 40.0452 15.7773 39.8232 15.6298 39.6397L14.1298 37.7697L16.5098 37.5097C16.8039 37.4718 17.0741 37.3281 17.27 37.1054C17.4658 36.8827 17.5739 36.5963 17.5739 36.2997C17.5739 36.0032 17.4658 35.7167 17.27 35.494C17.0741 35.2713 16.8039 35.1276 16.5098 35.0897L14.1298 34.8297L15.6298 32.9597C15.8291 32.7262 15.933 32.4263 15.921 32.1195C15.9089 31.8128 15.7816 31.5219 15.5646 31.3048C15.3475 31.0878 15.0567 30.9605 14.7499 30.9485C14.4432 30.9364 14.1432 31.0404 13.9097 31.2397L12.5098 32.3597L11.9097 26.7997C11.8772 26.4682 11.7215 26.161 11.4734 25.9388C11.2253 25.7166 10.9028 25.5956 10.5698 25.5997L10.5197 25.6097Z"/>
</mask>
<path d="M10.5197 26.6097C10.6066 26.6068 10.6914 26.6373 10.7565 26.695C10.8216 26.7526 10.8621 26.8331 10.8698 26.9197L11.6298 33.9197V34.3697L14.4797 32.0697C14.5244 32.0399 14.5762 32.0226 14.6298 32.0197C14.6726 32.0223 14.714 32.0364 14.7496 32.0605C14.7852 32.0845 14.8136 32.1177 14.832 32.1565C14.8504 32.1954 14.858 32.2384 14.8541 32.2812C14.8502 32.3239 14.8349 32.3649 14.8098 32.3997L12.1697 35.6797L16.3497 36.1297C16.4107 36.1297 16.4693 36.1539 16.5124 36.1971C16.5555 36.2402 16.5797 36.2987 16.5797 36.3597C16.5797 36.4207 16.5555 36.4792 16.5124 36.5223C16.4693 36.5655 16.4107 36.5897 16.3497 36.5897L12.1697 37.0397L14.8098 40.3197C14.8349 40.3545 14.8502 40.3955 14.8541 40.4383C14.858 40.481 14.8504 40.5241 14.832 40.5629C14.8136 40.6017 14.7852 40.6348 14.7496 40.6589C14.714 40.683 14.6726 40.6971 14.6298 40.6997C14.5762 40.6967 14.5244 40.6795 14.4797 40.6497L11.5797 38.3197L10.8698 44.8897C10.8621 44.9763 10.8216 45.0568 10.7565 45.1144C10.6914 45.1721 10.6066 45.2026 10.5197 45.1997C10.4764 45.2024 10.4329 45.1965 10.3918 45.1824C10.3508 45.1683 10.3129 45.1462 10.2804 45.1173C10.2479 45.0885 10.2213 45.0536 10.2023 45.0146C10.1833 44.9755 10.1723 44.9331 10.1697 44.8897L9.44971 38.3197L6.54974 40.6497C6.50955 40.6808 6.46051 40.6983 6.40973 40.6997C6.36685 40.6971 6.3255 40.683 6.28992 40.6589C6.25434 40.6348 6.22585 40.6017 6.20746 40.5629C6.18907 40.5241 6.18144 40.481 6.18536 40.4383C6.18928 40.3955 6.2046 40.3545 6.22974 40.3197L8.86975 37.0397L4.67975 36.5897C4.61875 36.5897 4.56022 36.5655 4.51709 36.5223C4.47396 36.4792 4.44971 36.4207 4.44971 36.3597C4.44971 36.2987 4.47396 36.2402 4.51709 36.1971C4.56022 36.1539 4.61875 36.1297 4.67975 36.1297L8.86975 35.6797L6.22974 32.3997C6.2046 32.3649 6.18928 32.3239 6.18536 32.2812C6.18144 32.2384 6.18907 32.1954 6.20746 32.1565C6.22585 32.1177 6.25434 32.0845 6.28992 32.0605C6.3255 32.0364 6.36685 32.0223 6.40973 32.0197C6.46051 32.0211 6.50955 32.0386 6.54974 32.0697L9.40973 34.3697V33.9197L10.1697 26.9197C10.1723 26.8764 10.1833 26.8339 10.2023 26.7948C10.2213 26.7558 10.2479 26.7208 10.2804 26.692C10.3129 26.6632 10.3508 26.6411 10.3918 26.627C10.4329 26.6129 10.4764 26.607 10.5197 26.6097ZM10.5197 25.6097C10.1867 25.6056 9.86421 25.7266 9.61609 25.9488C9.36797 26.171 9.21228 26.4782 9.17975 26.8097L8.57971 32.3697L7.17975 31.2497C7.03593 31.1336 6.86764 31.0518 6.68756 31.0103C6.50748 30.9688 6.32029 30.9688 6.1402 31.0102C5.9601 31.0516 5.79182 31.1334 5.64795 31.2494C5.50408 31.3653 5.38844 31.5125 5.30975 31.6797C5.2071 31.8861 5.16661 32.118 5.19324 32.347C5.21987 32.576 5.31244 32.7923 5.45972 32.9697L6.95972 34.8397L4.57971 35.0997C4.28558 35.1376 4.01537 35.2813 3.81952 35.504C3.62367 35.7267 3.51562 36.0131 3.51562 36.3097C3.51562 36.6062 3.62367 36.8927 3.81952 37.1154C4.01537 37.3381 4.28558 37.4818 4.57971 37.5197L6.95972 37.7797L5.45972 39.6497C5.31244 39.8271 5.21987 40.0434 5.19324 40.2724C5.16661 40.5015 5.2071 40.7332 5.30975 40.9397C5.38844 41.1069 5.50408 41.2541 5.64795 41.37C5.79182 41.486 5.9601 41.5678 6.1402 41.6092C6.32029 41.6506 6.50748 41.6506 6.68756 41.6091C6.86764 41.5676 7.03593 41.4857 7.17975 41.3697L8.65973 40.1797L9.17975 44.9397C9.2198 45.2669 9.37816 45.5681 9.625 45.7866C9.87184 46.0051 10.1901 46.1257 10.5197 46.1257C10.8494 46.1257 11.1676 46.0051 11.4145 45.7866C11.6613 45.5681 11.8197 45.2669 11.8597 44.9397L12.3698 40.1797L13.8597 41.3697C14.0774 41.5461 14.3496 41.6416 14.6298 41.6397C14.8651 41.6476 15.0977 41.5878 15.3 41.4674C15.5024 41.347 15.666 41.1711 15.7713 40.9605C15.8766 40.7499 15.9192 40.5135 15.8941 40.2793C15.869 40.0452 15.7773 39.8232 15.6298 39.6397L14.1298 37.7697L16.5098 37.5097C16.8039 37.4718 17.0741 37.3281 17.27 37.1054C17.4658 36.8827 17.5739 36.5963 17.5739 36.2997C17.5739 36.0032 17.4658 35.7167 17.27 35.494C17.0741 35.2713 16.8039 35.1276 16.5098 35.0897L14.1298 34.8297L15.6298 32.9597C15.8291 32.7262 15.933 32.4263 15.921 32.1195C15.9089 31.8128 15.7816 31.5219 15.5646 31.3048C15.3475 31.0878 15.0567 30.9605 14.7499 30.9485C14.4432 30.9364 14.1432 31.0404 13.9097 31.2397L12.5098 32.3597L11.9097 26.7997C11.8772 26.4682 11.7215 26.161 11.4734 25.9388C11.2253 25.7166 10.9028 25.5956 10.5698 25.5997L10.5197 25.6097Z" fill="#C28B7B" stroke="#BA8661" stroke-width="2" mask="url(#path-6-inside-2_366_14005)"/>
<mask id="path-7-inside-3_366_14005" fill="white">
<path d="M61.3908 26.6095C61.4342 26.6068 61.4777 26.6126 61.5187 26.6267C61.5598 26.6409 61.5977 26.663 61.6302 26.6918C61.6627 26.7206 61.6892 26.7555 61.7082 26.7946C61.7272 26.8337 61.7383 26.8761 61.7408 26.9195L62.5009 33.9195V34.3694L65.3608 32.0694C65.401 32.0384 65.4501 32.0209 65.5009 32.0194C65.5437 32.0221 65.5851 32.0362 65.6207 32.0602C65.6562 32.0843 65.6847 32.1175 65.7031 32.1563C65.7215 32.1951 65.7291 32.2381 65.7252 32.2809C65.7213 32.3237 65.706 32.3646 65.6808 32.3995L63.0408 35.6794L67.2308 36.1294C67.2918 36.1294 67.3504 36.1537 67.3935 36.1968C67.4366 36.24 67.4608 36.2985 67.4608 36.3595C67.4608 36.4205 67.4366 36.4789 67.3935 36.5221C67.3504 36.5652 67.2918 36.5895 67.2308 36.5895L63.0408 37.0395L65.6808 40.3194C65.706 40.3543 65.7213 40.3953 65.7252 40.438C65.7291 40.4808 65.7215 40.5238 65.7031 40.5627C65.6847 40.6015 65.6562 40.6346 65.6207 40.6587C65.5851 40.6827 65.5437 40.6968 65.5009 40.6994C65.4501 40.698 65.401 40.6805 65.3608 40.6495L62.4608 38.3194L61.7408 44.8894C61.7383 44.9328 61.7272 44.9753 61.7082 45.0143C61.6892 45.0534 61.6627 45.0883 61.6302 45.1171C61.5977 45.1459 61.5598 45.168 61.5187 45.1822C61.4777 45.1963 61.4342 45.2021 61.3908 45.1994C61.3039 45.2023 61.2192 45.1718 61.1541 45.1142C61.089 45.0565 61.0485 44.9761 61.0408 44.8894L60.3308 38.3194L57.4308 40.6495C57.3862 40.6792 57.3344 40.6965 57.2808 40.6994C57.2372 40.6986 57.1947 40.6854 57.1583 40.6613C57.1219 40.6372 57.093 40.6032 57.0752 40.5634C57.0574 40.5235 57.0512 40.4795 57.0576 40.4363C57.0639 40.3931 57.0824 40.3525 57.1108 40.3194L59.7408 37.0395L55.5609 36.5895C55.4999 36.5895 55.4413 36.5652 55.3982 36.5221C55.3551 36.4789 55.3308 36.4205 55.3308 36.3595C55.3308 36.2985 55.3551 36.24 55.3982 36.1968C55.4413 36.1537 55.4999 36.1294 55.5609 36.1294L59.7408 35.6794L57.1108 32.3995C57.0824 32.3664 57.0639 32.3258 57.0576 32.2826C57.0512 32.2394 57.0574 32.1953 57.0752 32.1555C57.093 32.1156 57.1219 32.0817 57.1583 32.0576C57.1947 32.0335 57.2372 32.0203 57.2808 32.0194C57.3344 32.0224 57.3862 32.0397 57.4308 32.0694L60.2808 34.3694V33.9195L61.0408 26.9195C61.0485 26.8328 61.089 26.7524 61.1541 26.6947C61.2192 26.6371 61.3039 26.6066 61.3908 26.6095ZM61.3908 25.6095C61.0578 25.6054 60.7353 25.7264 60.4872 25.9486C60.2391 26.1708 60.0834 26.4779 60.0508 26.8094L59.4508 32.3694L58.0508 31.2494C57.8332 31.073 57.561 30.9776 57.2808 30.9795C57.0497 30.9812 56.8238 31.048 56.6289 31.1722C56.434 31.2964 56.2781 31.4729 56.179 31.6817C56.0798 31.8904 56.0414 32.1229 56.0683 32.3524C56.0952 32.5819 56.1861 32.7993 56.3308 32.9795L57.8308 34.8495L55.4508 35.1095C55.1567 35.1474 54.8865 35.2911 54.6906 35.5138C54.4948 35.7365 54.3867 36.0229 54.3867 36.3194C54.3867 36.616 54.4948 36.9024 54.6906 37.1251C54.8865 37.3478 55.1567 37.4916 55.4508 37.5295L57.8308 37.7895L56.3308 39.7095C56.1315 39.9429 56.0275 40.2429 56.0396 40.5496C56.0517 40.8563 56.1789 41.1472 56.396 41.3643C56.613 41.5814 56.9039 41.7086 57.2106 41.7207C57.5174 41.7328 57.8174 41.6287 58.0508 41.4294L59.5408 40.2395L60.0508 44.9994C60.0909 45.3266 60.2493 45.6279 60.4961 45.8464C60.7429 46.0648 61.0612 46.1855 61.3908 46.1855C61.7204 46.1855 62.0387 46.0648 62.2856 45.8464C62.5324 45.6279 62.6908 45.3266 62.7308 44.9994L63.2509 40.2395L64.7308 41.4294C64.8747 41.5455 65.0429 41.6274 65.223 41.6689C65.4031 41.7104 65.5902 41.7104 65.7703 41.669C65.9504 41.6276 66.1188 41.5458 66.2626 41.4298C66.4065 41.3138 66.5221 41.1666 66.6008 40.9994C66.7035 40.793 66.744 40.5612 66.7173 40.3322C66.6907 40.1032 66.5981 39.8868 66.4508 39.7095L64.9508 37.8395L67.3308 37.5794C67.6249 37.5416 67.8952 37.3978 68.0911 37.1751C68.2869 36.9525 68.395 36.666 68.395 36.3694C68.395 36.0729 68.2869 35.7865 68.0911 35.5638C67.8952 35.3411 67.6249 35.1974 67.3308 35.1595L64.9508 34.8995L66.4508 33.0295C66.5981 32.8521 66.6907 32.6357 66.7173 32.4067C66.744 32.1777 66.7035 31.9459 66.6008 31.7395C66.5034 31.53 66.3481 31.3527 66.1532 31.2286C65.9583 31.1046 65.7319 31.0389 65.5009 31.0395C65.2209 31.0392 64.9493 31.1344 64.7308 31.3094L63.3308 32.4294L62.7308 26.8694C62.6983 26.5379 62.5426 26.2308 62.2944 26.0086C62.0463 25.7864 61.7239 25.6654 61.3908 25.6695V25.6095Z"/>
</mask>
<path d="M61.3908 26.6095C61.4342 26.6068 61.4777 26.6126 61.5187 26.6267C61.5598 26.6409 61.5977 26.663 61.6302 26.6918C61.6627 26.7206 61.6892 26.7555 61.7082 26.7946C61.7272 26.8337 61.7383 26.8761 61.7408 26.9195L62.5009 33.9195V34.3694L65.3608 32.0694C65.401 32.0384 65.4501 32.0209 65.5009 32.0194C65.5437 32.0221 65.5851 32.0362 65.6207 32.0602C65.6562 32.0843 65.6847 32.1175 65.7031 32.1563C65.7215 32.1951 65.7291 32.2381 65.7252 32.2809C65.7213 32.3237 65.706 32.3646 65.6808 32.3995L63.0408 35.6794L67.2308 36.1294C67.2918 36.1294 67.3504 36.1537 67.3935 36.1968C67.4366 36.24 67.4608 36.2985 67.4608 36.3595C67.4608 36.4205 67.4366 36.4789 67.3935 36.5221C67.3504 36.5652 67.2918 36.5895 67.2308 36.5895L63.0408 37.0395L65.6808 40.3194C65.706 40.3543 65.7213 40.3953 65.7252 40.438C65.7291 40.4808 65.7215 40.5238 65.7031 40.5627C65.6847 40.6015 65.6562 40.6346 65.6207 40.6587C65.5851 40.6827 65.5437 40.6968 65.5009 40.6994C65.4501 40.698 65.401 40.6805 65.3608 40.6495L62.4608 38.3194L61.7408 44.8894C61.7383 44.9328 61.7272 44.9753 61.7082 45.0143C61.6892 45.0534 61.6627 45.0883 61.6302 45.1171C61.5977 45.1459 61.5598 45.168 61.5187 45.1822C61.4777 45.1963 61.4342 45.2021 61.3908 45.1994C61.3039 45.2023 61.2192 45.1718 61.1541 45.1142C61.089 45.0565 61.0485 44.9761 61.0408 44.8894L60.3308 38.3194L57.4308 40.6495C57.3862 40.6792 57.3344 40.6965 57.2808 40.6994C57.2372 40.6986 57.1947 40.6854 57.1583 40.6613C57.1219 40.6372 57.093 40.6032 57.0752 40.5634C57.0574 40.5235 57.0512 40.4795 57.0576 40.4363C57.0639 40.3931 57.0824 40.3525 57.1108 40.3194L59.7408 37.0395L55.5609 36.5895C55.4999 36.5895 55.4413 36.5652 55.3982 36.5221C55.3551 36.4789 55.3308 36.4205 55.3308 36.3595C55.3308 36.2985 55.3551 36.24 55.3982 36.1968C55.4413 36.1537 55.4999 36.1294 55.5609 36.1294L59.7408 35.6794L57.1108 32.3995C57.0824 32.3664 57.0639 32.3258 57.0576 32.2826C57.0512 32.2394 57.0574 32.1953 57.0752 32.1555C57.093 32.1156 57.1219 32.0817 57.1583 32.0576C57.1947 32.0335 57.2372 32.0203 57.2808 32.0194C57.3344 32.0224 57.3862 32.0397 57.4308 32.0694L60.2808 34.3694V33.9195L61.0408 26.9195C61.0485 26.8328 61.089 26.7524 61.1541 26.6947C61.2192 26.6371 61.3039 26.6066 61.3908 26.6095ZM61.3908 25.6095C61.0578 25.6054 60.7353 25.7264 60.4872 25.9486C60.2391 26.1708 60.0834 26.4779 60.0508 26.8094L59.4508 32.3694L58.0508 31.2494C57.8332 31.073 57.561 30.9776 57.2808 30.9795C57.0497 30.9812 56.8238 31.048 56.6289 31.1722C56.434 31.2964 56.2781 31.4729 56.179 31.6817C56.0798 31.8904 56.0414 32.1229 56.0683 32.3524C56.0952 32.5819 56.1861 32.7993 56.3308 32.9795L57.8308 34.8495L55.4508 35.1095C55.1567 35.1474 54.8865 35.2911 54.6906 35.5138C54.4948 35.7365 54.3867 36.0229 54.3867 36.3194C54.3867 36.616 54.4948 36.9024 54.6906 37.1251C54.8865 37.3478 55.1567 37.4916 55.4508 37.5295L57.8308 37.7895L56.3308 39.7095C56.1315 39.9429 56.0275 40.2429 56.0396 40.5496C56.0517 40.8563 56.1789 41.1472 56.396 41.3643C56.613 41.5814 56.9039 41.7086 57.2106 41.7207C57.5174 41.7328 57.8174 41.6287 58.0508 41.4294L59.5408 40.2395L60.0508 44.9994C60.0909 45.3266 60.2493 45.6279 60.4961 45.8464C60.7429 46.0648 61.0612 46.1855 61.3908 46.1855C61.7204 46.1855 62.0387 46.0648 62.2856 45.8464C62.5324 45.6279 62.6908 45.3266 62.7308 44.9994L63.2509 40.2395L64.7308 41.4294C64.8747 41.5455 65.0429 41.6274 65.223 41.6689C65.4031 41.7104 65.5902 41.7104 65.7703 41.669C65.9504 41.6276 66.1188 41.5458 66.2626 41.4298C66.4065 41.3138 66.5221 41.1666 66.6008 40.9994C66.7035 40.793 66.744 40.5612 66.7173 40.3322C66.6907 40.1032 66.5981 39.8868 66.4508 39.7095L64.9508 37.8395L67.3308 37.5794C67.6249 37.5416 67.8952 37.3978 68.0911 37.1751C68.2869 36.9525 68.395 36.666 68.395 36.3694C68.395 36.0729 68.2869 35.7865 68.0911 35.5638C67.8952 35.3411 67.6249 35.1974 67.3308 35.1595L64.9508 34.8995L66.4508 33.0295C66.5981 32.8521 66.6907 32.6357 66.7173 32.4067C66.744 32.1777 66.7035 31.9459 66.6008 31.7395C66.5034 31.53 66.3481 31.3527 66.1532 31.2286C65.9583 31.1046 65.7319 31.0389 65.5009 31.0395C65.2209 31.0392 64.9493 31.1344 64.7308 31.3094L63.3308 32.4294L62.7308 26.8694C62.6983 26.5379 62.5426 26.2308 62.2944 26.0086C62.0463 25.7864 61.7239 25.6654 61.3908 25.6695V25.6095Z" fill="#C28B7B" stroke="#BA8661" stroke-width="2" mask="url(#path-7-inside-3_366_14005)"/>
<path d="M3.5 4.5L25.68 26.1392" stroke="#BA8661" stroke-linecap="round" stroke-linejoin="round"/>
<path d="M45.6289 46.1797L68 68" stroke="#BA8661" stroke-linecap="round" stroke-linejoin="round"/>
<path d="M68 4L45.8594 26.14" stroke="#BA8661" stroke-linecap="round" stroke-linejoin="round"/>
<path d="M25.6103 46.7207L4 68" stroke="#BA8661" stroke-linecap="round" stroke-linejoin="round"/>
</svg>
