<svg width="31" height="30" viewBox="0 0 31 30" fill="none" xmlns="http://www.w3.org/2000/svg">
<g id="Instagram_logo_2016 1" clip-path="url(#clip0_1441_36230)">
<path id="Vector" d="M15.5064 0.227539C9.33799 0.227539 7.53396 0.233903 7.18329 0.262993C5.91742 0.368217 5.12971 0.567529 4.27156 0.994789C3.61021 1.32319 3.08864 1.70386 2.57388 2.23748C1.63641 3.21063 1.06824 4.40787 0.862568 5.83101C0.762572 6.52189 0.733481 6.6628 0.727573 10.1918C0.7253 11.3681 0.727573 12.9162 0.727573 14.9928C0.727573 21.1562 0.734391 22.9584 0.763935 23.3084C0.866205 24.5402 1.05938 25.3152 1.46846 26.1629C2.25025 27.7856 3.74339 29.0037 5.50243 29.4582C6.1115 29.6151 6.78421 29.7014 7.64782 29.7423C8.01372 29.7582 11.7431 29.7696 15.4749 29.7696C19.2066 29.7696 22.9383 29.7651 23.2951 29.7469C24.295 29.6998 24.8757 29.6219 25.5177 29.456C27.2881 28.9992 28.754 27.7992 29.5517 26.1538C29.9528 25.3266 30.1562 24.522 30.2483 23.3546C30.2683 23.1 30.2767 19.0417 30.2767 14.9889C30.2767 10.9354 30.2676 6.88461 30.2476 6.63007C30.1544 5.44374 29.951 4.64604 29.5369 3.80289C29.1972 3.11268 28.8199 2.59724 28.2722 2.07021C27.2947 1.1366 26.0993 0.568438 24.6748 0.36299C23.9846 0.26322 23.8471 0.233675 20.3154 0.227539H15.5064Z" fill="url(#paint0_radial_1441_36230)"/>
<path id="Vector_2" d="M15.5064 0.227539C9.33799 0.227539 7.53396 0.233903 7.18329 0.262993C5.91742 0.368217 5.12971 0.567529 4.27156 0.994789C3.61021 1.32319 3.08864 1.70386 2.57388 2.23748C1.63641 3.21063 1.06824 4.40787 0.862568 5.83101C0.762572 6.52189 0.733481 6.6628 0.727573 10.1918C0.7253 11.3681 0.727573 12.9162 0.727573 14.9928C0.727573 21.1562 0.734391 22.9584 0.763935 23.3084C0.866205 24.5402 1.05938 25.3152 1.46846 26.1629C2.25025 27.7856 3.74339 29.0037 5.50243 29.4582C6.1115 29.6151 6.78421 29.7014 7.64782 29.7423C8.01372 29.7582 11.7431 29.7696 15.4749 29.7696C19.2066 29.7696 22.9383 29.7651 23.2951 29.7469C24.295 29.6998 24.8757 29.6219 25.5177 29.456C27.2881 28.9992 28.754 27.7992 29.5517 26.1538C29.9528 25.3266 30.1562 24.522 30.2483 23.3546C30.2683 23.1 30.2767 19.0417 30.2767 14.9889C30.2767 10.9354 30.2676 6.88461 30.2476 6.63007C30.1544 5.44374 29.951 4.64604 29.5369 3.80289C29.1972 3.11268 28.8199 2.59724 28.2722 2.07021C27.2947 1.1366 26.0993 0.568438 24.6748 0.36299C23.9846 0.26322 23.8471 0.233675 20.3154 0.227539H15.5064Z" fill="url(#paint1_radial_1441_36230)"/>
<path id="Vector_3" d="M15.4995 4.09131C12.5369 4.09131 12.1651 4.10426 11.0015 4.15722C9.84014 4.2104 9.04744 4.39425 8.35382 4.66402C7.63634 4.94265 7.02772 5.31536 6.42138 5.92194C5.81458 6.52828 5.44186 7.1369 5.16233 7.85415C4.89188 8.54799 4.70779 9.34092 4.65552 10.5018C4.60348 11.6654 4.58984 12.0374 4.58984 15.0001C4.58984 17.9627 4.60303 18.3334 4.65575 19.497C4.70916 20.6583 4.89302 21.451 5.16255 22.1446C5.44141 22.8621 5.81412 23.4707 6.4207 24.0771C7.02682 24.6839 7.63543 25.0575 8.35246 25.3361C9.04653 25.6059 9.83946 25.7897 11.0006 25.8429C12.1642 25.8959 12.5357 25.9088 15.4981 25.9088C18.461 25.9088 18.8317 25.8959 19.9953 25.8429C21.1566 25.7897 21.9502 25.6059 22.6443 25.3361C23.3615 25.0575 23.9693 24.6839 24.5754 24.0771C25.1822 23.4707 25.5549 22.8621 25.8344 22.1449C26.1026 21.451 26.2867 20.6581 26.3412 19.4972C26.3935 18.3336 26.4071 17.9627 26.4071 15.0001C26.4071 12.0374 26.3935 11.6656 26.3412 10.502C26.2867 9.3407 26.1026 8.54799 25.8344 7.85438C25.5549 7.1369 25.1822 6.52828 24.5754 5.92194C23.9686 5.31514 23.3618 4.94242 22.6436 4.66402C21.9482 4.39425 21.155 4.2104 19.9937 4.15722C18.8301 4.10426 18.4597 4.09131 15.4961 4.09131H15.4995ZM14.5209 6.05716C14.8114 6.0567 15.1354 6.05716 15.4995 6.05716C18.4122 6.05716 18.7574 6.06761 19.9076 6.11988C20.9712 6.16852 21.5484 6.34624 21.933 6.49555C22.442 6.69328 22.805 6.92963 23.1866 7.31144C23.5684 7.69324 23.8047 8.05687 24.0029 8.56595C24.1522 8.95003 24.3302 9.52728 24.3786 10.5909C24.4308 11.7408 24.4422 12.0863 24.4422 14.9976C24.4422 17.9088 24.4308 18.2543 24.3786 19.4043C24.3299 20.4679 24.1522 21.0451 24.0029 21.4292C23.8052 21.9383 23.5684 22.3008 23.1866 22.6823C22.8047 23.0641 22.4423 23.3005 21.933 23.4982C21.5489 23.6482 20.9712 23.8255 19.9076 23.8741C18.7576 23.9264 18.4122 23.9378 15.4995 23.9378C12.5866 23.9378 12.2414 23.9264 11.0915 23.8741C10.0279 23.825 9.45061 23.6473 9.06584 23.498C8.55677 23.3003 8.19314 23.0639 7.81134 22.6821C7.42953 22.3003 7.19317 21.9376 6.995 21.4283C6.84568 21.0442 6.66774 20.4669 6.61933 19.4033C6.56706 18.2534 6.5566 17.9079 6.5566 14.9948C6.5566 12.0817 6.56706 11.7381 6.61933 10.5882C6.66796 9.52455 6.84568 8.9473 6.995 8.56276C7.19272 8.05369 7.42953 7.69006 7.81134 7.30826C8.19314 6.92645 8.55677 6.69009 9.06584 6.49192C9.45038 6.34192 10.0279 6.16466 11.0915 6.11579C12.0978 6.07034 12.4878 6.0567 14.5209 6.05443V6.05716ZM21.3225 7.86847C20.5998 7.86847 20.0135 8.45413 20.0135 9.17706C20.0135 9.89977 20.5998 10.4861 21.3225 10.4861C22.0452 10.4861 22.6316 9.89977 22.6316 9.17706C22.6316 8.45436 22.0452 7.86801 21.3225 7.86801V7.86847ZM15.4995 9.39797C12.4057 9.39797 9.89741 11.9063 9.89741 15.0001C9.89741 18.0938 12.4057 20.601 15.4995 20.601C18.5933 20.601 21.1007 18.0938 21.1007 15.0001C21.1007 11.9063 18.5933 9.39797 15.4995 9.39797ZM15.4995 11.3638C17.5076 11.3638 19.1358 12.9917 19.1358 15.0001C19.1358 17.0082 17.5076 18.6363 15.4995 18.6363C13.4912 18.6363 11.8633 17.0082 11.8633 15.0001C11.8633 12.9917 13.4912 11.3638 15.4995 11.3638Z" fill="white"/>
</g>
<defs>
<radialGradient id="paint0_radial_1441_36230" cx="0" cy="0" r="1" gradientUnits="userSpaceOnUse" gradientTransform="translate(8.57585 32.045) rotate(-90) scale(29.2784 27.2386)">
<stop stop-color="#FFDD55"/>
<stop offset="0.1" stop-color="#FFDD55"/>
<stop offset="0.5" stop-color="#FF543E"/>
<stop offset="1" stop-color="#C837AB"/>
</radialGradient>
<radialGradient id="paint1_radial_1441_36230" cx="0" cy="0" r="1" gradientUnits="userSpaceOnUse" gradientTransform="translate(-4.22324 2.3557) rotate(78.6776) scale(13.0877 53.9616)">
<stop stop-color="#3771C8"/>
<stop offset="0.128" stop-color="#3771C8"/>
<stop offset="1" stop-color="#6600FF" stop-opacity="0"/>
</radialGradient>
<clipPath id="clip0_1441_36230">
<rect width="30" height="29.9991" fill="white" transform="translate(0.5 0.000488281)"/>
</clipPath>
</defs>
</svg>
