<svg width="72" height="72" viewBox="0 0 72 72" fill="none" xmlns="http://www.w3.org/2000/svg">
<rect x="0.5" y="0.5" width="71" height="71" rx="11.5" stroke="#BA8661"/>
<path d="M27.07 48.8811C24.53 42.4211 28.79 38.0611 32.86 35.9711C32.9894 35.9005 33.0974 35.7965 33.1726 35.6698C33.2479 35.5431 33.2875 35.3985 33.2875 35.2511C33.2875 35.1037 33.2479 34.9591 33.1726 34.8324C33.0974 34.7057 32.9894 34.6016 32.86 34.5311C22.86 28.8611 27.35 21.3711 27.35 21.3711M44.83 48.8811C47.37 42.4211 43.12 38.0611 39.05 35.9711C38.9206 35.9005 38.8126 35.7965 38.7374 35.6698C38.6621 35.5431 38.6224 35.3985 38.6224 35.2511C38.6224 35.1037 38.6621 34.9591 38.7374 34.8324C38.8126 34.7057 38.9206 34.6016 39.05 34.5311C49.05 28.8611 44.55 21.3711 44.55 21.3711" stroke="#BA8661" stroke-linecap="round" stroke-linejoin="round"/>
<path d="M29.2617 46.9109H42.7417C42.7417 46.9109 38.6017 40.9109 35.8517 41.1309C32.5917 41.3409 29.2617 46.9109 29.2617 46.9109Z" stroke="#BA8661" stroke-linecap="round" stroke-linejoin="round"/>
<path d="M28.8692 23.6113H43.2493C43.2493 23.6113 44.8592 28.6113 37.8992 32.6113C37.2423 33.0101 36.7226 33.5996 36.4093 34.3013C36.3671 34.3785 36.3049 34.4429 36.2292 34.4878C36.1536 34.5327 36.0672 34.5564 35.9793 34.5564C35.8913 34.5564 35.805 34.5327 35.7293 34.4878C35.6536 34.4429 35.5915 34.3785 35.5493 34.3013C35.1905 33.633 34.6844 33.0551 34.0693 32.6113C32.6793 31.7613 27.2892 28.2713 28.8692 23.6113Z" stroke="#BA8661" stroke-linecap="round" stroke-linejoin="round"/>
<path d="M45.7003 18.9609H26.2803C25.612 18.9609 25.0703 19.5004 25.0703 20.1659C25.0703 20.8314 25.612 21.3709 26.2803 21.3709H45.7003C46.3686 21.3709 46.9103 20.8314 46.9103 20.1659C46.9103 19.5004 46.3686 18.9609 45.7003 18.9609Z" stroke="#BA8661" stroke-linecap="round" stroke-linejoin="round"/>
<path d="M45.7003 48.8809H26.2803C25.612 48.8809 25.0703 49.4203 25.0703 50.0858C25.0703 50.7513 25.612 51.2908 26.2803 51.2908H45.7003C46.3686 51.2908 46.9103 50.7513 46.9103 50.0858C46.9103 49.4203 46.3686 48.8809 45.7003 48.8809Z" stroke="#BA8661" stroke-linecap="round" stroke-linejoin="round"/>
<path d="M36 37C36.2762 37 36.5 36.7762 36.5 36.5C36.5 36.2239 36.2762 36 36 36C35.7239 36 35.5 36.2239 35.5 36.5C35.5 36.7762 35.7239 37 36 37Z" fill="#BA8661"/>
<path d="M35.94 39.7511C36.3211 39.7511 36.63 39.4422 36.63 39.0611C36.63 38.68 36.3211 38.3711 35.94 38.3711C35.5589 38.3711 35.25 38.68 35.25 39.0611C35.25 39.4422 35.5589 39.7511 35.94 39.7511Z" stroke="#BA8661" stroke-linecap="round" stroke-linejoin="round"/>
<path d="M35.9991 68.6806C35.1807 68.6802 34.3733 68.492 33.6391 68.1306L24.7291 63.7106C19.9248 61.2517 15.8936 57.513 13.0807 52.9071C10.2678 48.3012 8.78256 43.0075 8.78908 37.6106V8.89062H63.1991V37.6106C63.2112 43.0126 61.7285 48.3127 58.9153 52.9243C56.1021 57.536 52.0679 61.2795 47.2591 63.7406L38.3491 68.1606C37.6156 68.5108 36.8118 68.6887 35.9991 68.6806Z" stroke="#BA8661" stroke-linecap="round" stroke-linejoin="round"/>
<path d="M35.2311 64.9307C35.4688 65.0488 35.7307 65.1102 35.9961 65.1102C36.2615 65.1102 36.5234 65.0488 36.7611 64.9307L45.6311 60.5307C49.8472 58.3598 53.3839 55.0698 55.8535 51.0215C58.3231 46.9731 59.6301 42.3228 59.6311 37.5807V12.4707H12.3711V37.6107C12.3699 42.3533 13.6759 47.0045 16.1458 51.0532C18.6156 55.102 22.1536 58.3916 26.3711 60.5607L35.2311 64.9307Z" stroke="#BA8661" stroke-linecap="round" stroke-linejoin="round"/>
<path d="M57 57L68 68" stroke="#BA8661" stroke-linecap="round" stroke-linejoin="round"/>
<path d="M4 4L9 9" stroke="#BA8661" stroke-linecap="round" stroke-linejoin="round"/>
<path d="M68 4L63 9" stroke="#BA8661" stroke-linecap="round" stroke-linejoin="round"/>
<path d="M15 57L4 68" stroke="#BA8661" stroke-linecap="round" stroke-linejoin="round"/>
</svg>
