<svg width="26" height="16" viewBox="0 0 26 16" fill="none" xmlns="http://www.w3.org/2000/svg">
<path d="M16.5149 1.71071H9.48438V14.2892H16.5149V1.71071Z" fill="#FF5F00"/>
<path d="M9.93083 8.00154C9.92954 6.78997 10.2052 5.59398 10.7369 4.50415C11.2686 3.41432 12.0424 2.45921 12.9997 1.71116C11.8144 0.783764 10.3909 0.20707 8.89187 0.0469906C7.39288 -0.113088 5.87889 0.149907 4.52294 0.805918C3.16698 1.46193 2.02377 2.48449 1.22396 3.75673C0.424144 5.02897 0 6.49956 0 8.00043C0 9.5013 0.424144 10.9719 1.22396 12.2441C2.02377 13.5164 3.16698 14.5389 4.52294 15.1949C5.87889 15.851 7.39288 16.114 8.89187 15.9539C10.3909 15.7938 11.8144 15.2171 12.9997 14.2897C12.0427 13.5419 11.269 12.5871 10.7374 11.4977C10.2057 10.4083 9.92987 9.21275 9.93083 8.00154Z" fill="#EB001B"/>
<path d="M25.9999 8.00111C25.9999 9.50209 25.5756 10.9728 24.7757 12.2451C23.9757 13.5173 22.8323 14.5399 21.4762 15.1958C20.1201 15.8517 18.606 16.1146 17.1069 15.9542C15.6078 15.7939 14.1843 15.217 12.999 14.2893C13.9557 13.5408 14.7291 12.5858 15.2609 11.4963C15.7927 10.4068 16.0691 9.21132 16.0691 8C16.0691 6.78868 15.7927 5.59318 15.2609 4.5037C14.7291 3.41422 13.9557 2.45921 12.999 1.71073C14.1843 0.783041 15.6078 0.206066 17.1069 0.0457573C18.606 -0.114552 20.1201 0.148274 21.4762 0.804192C22.8323 1.46011 23.9757 2.48265 24.7757 3.75494C25.5756 5.02722 25.9999 6.49791 25.9999 7.99889V8.00111Z" fill="#F79E1B"/>
<path d="M25.233 12.9558V12.6981H25.3379V12.6448H25.0723V12.6981H25.1861V12.9558H25.233ZM25.7485 12.9558V12.6448H25.6682L25.5744 12.867L25.4807 12.6448H25.4093V12.9558H25.4673V12.7337L25.5544 12.9359H25.6146L25.7017 12.7337V12.9692L25.7485 12.9558Z" fill="#F79E1B"/>
</svg>
