<svg width="48" height="48" viewBox="0 0 48 48" fill="none" xmlns="http://www.w3.org/2000/svg">
<g id="ideate/line/text2" clip-path="url(#clip0_1441_36206)">
<g id="Group 18433">
<g id="Group 18432">
<path id="Vector 235" d="M16.125 22.2812L16.125 25.7187" stroke="#231F20" stroke-width="2" stroke-linecap="round"/>
<path id="Vector 236" d="M24 17.9062L24 25.7188" stroke="#231F20" stroke-width="2" stroke-linecap="round"/>
<path id="Vector 237" d="M31.875 13.5938L31.875 25.7187" stroke="#231F20" stroke-width="2" stroke-linecap="round"/>
</g>
<path id="Rectangle 976" d="M5 20.8213C5 17.0218 5.00212 14.2728 5.28398 12.1764C5.56196 10.1087 6.09545 8.82635 7.05025 7.87154C8.00506 6.91674 9.28745 6.38325 11.3551 6.10527C13.4515 5.82341 16.2005 5.82129 20 5.82129H28C31.7995 5.82129 34.5485 5.82341 36.6449 6.10527C38.7125 6.38325 39.9949 6.91674 40.9497 7.87154C41.9046 8.82635 42.438 10.1087 42.716 12.1764C42.9979 14.2728 43 17.0218 43 20.8213V30.0779C43 33.2499 40.4286 35.8213 37.2566 35.8213H32C31.4487 35.8213 30.8778 35.923 30.4283 36.2967C29.959 36.687 29.8134 37.212 29.7648 37.6188C29.7215 37.9801 29.741 38.3859 29.7571 38.7225C29.7582 38.7461 29.7594 38.7694 29.7604 38.7924C29.7785 39.176 29.7931 39.5426 29.7646 39.9225C29.6149 41.9187 27.2529 42.8899 25.7423 41.5764L21.2228 37.6463C19.8694 36.4694 18.1362 35.8213 16.3426 35.8213H14.7353C12.1252 35.8213 11.0216 35.8123 10.1428 35.5704C7.76399 34.9158 5.90547 33.0573 5.25088 30.6785C5.00903 29.7997 5 28.6961 5 26.086V20.8213Z" stroke="#231F20" stroke-width="2"/>
</g>
</g>
<defs>
<clipPath id="clip0_1441_36206">
<rect width="48" height="48" fill="white"/>
</clipPath>
</defs>
</svg>
