<svg width="154" height="48" viewBox="0 0 154 48" fill="none" xmlns="http://www.w3.org/2000/svg">
<g clip-path="url(#clip0_701_278)">
<path d="M36.3625 35.8838C35.7558 35.8783 35.1557 36.0081 34.6059 36.2637C34.0562 36.5193 33.5708 36.8942 33.1854 37.3609C30.792 40.3573 31.3215 44.9574 29.3093 46.0125C26.9371 47.2997 21.1336 46.962 17.5964 46.962C17.2725 47.0119 16.9416 46.9905 16.6269 46.8993C16.3123 46.8082 16.0214 46.6495 15.7748 46.4345C15.3484 45.6702 15.1707 44.7927 15.2665 43.9234V8.59958C15.225 7.04568 15.4543 5.49637 15.9443 4.02056C16.266 2.99884 16.8853 2.09544 17.7235 1.42508C18.5563 0.882726 19.5246 0.583066 20.5193 0.559922C20.585 0.566776 20.6514 0.55897 20.7137 0.53707C20.776 0.51517 20.8326 0.479727 20.8794 0.433313C20.898 0.415586 20.9128 0.394294 20.9229 0.370722C20.933 0.34715 20.9382 0.321785 20.9382 0.296154C20.9382 0.270523 20.933 0.245158 20.9229 0.221586C20.9128 0.198013 20.898 0.176722 20.8794 0.158994C20.8382 0.104408 20.7831 0.0618803 20.7197 0.0358867C20.6563 0.00989313 20.5871 0.00139423 20.5193 0.0112842L19.312 0.116791H17.9988H17.0033L16.1985 0.222299H4.50672H3.74422H2.85463L1.62615 0.116791L0.46121 0.0112842C0.386999 -0.00715102 0.308937 -0.00292295 0.23717 0.023419C0.165402 0.0497609 0.103245 0.0969988 0.0587775 0.158994C0.040197 0.176722 0.0254106 0.198013 0.0153091 0.221586C0.0052076 0.245158 0 0.270523 0 0.296154C0 0.321785 0.0052076 0.34715 0.0153091 0.370722C0.0254106 0.394294 0.040197 0.415586 0.0587775 0.433313C0.110088 0.485965 0.173721 0.525096 0.243962 0.547195C0.314203 0.569293 0.388854 0.573667 0.46121 0.559922C1.38329 0.585561 2.27628 0.887015 3.02407 1.42508C3.80061 2.11663 4.37201 3.00702 4.67617 3.99946C5.14566 5.48643 5.36047 7.04154 5.31159 8.59958V39.1967C5.36251 40.7548 5.14765 42.3103 4.67617 43.7968C4.38897 44.8149 3.81578 45.73 3.02407 46.4345C2.28137 46.9823 1.3852 47.2848 0.46121 47.2997C0.393408 47.2898 0.324182 47.2983 0.260818 47.3243C0.197454 47.3503 0.142293 47.3928 0.101139 47.4474C0.101139 47.4474 0.101139 47.6162 0.101139 47.7217C0.142346 47.7636 0.191885 47.7966 0.246591 47.8184C0.301297 47.8402 0.359966 47.8504 0.418849 47.8483C0.778921 47.8483 2.53692 47.8483 2.85463 47.8483H20.8582C25.3273 47.8483 35.6847 47.996 36.0871 47.996C36.248 48.0119 36.41 47.9803 36.5531 47.9053C36.6962 47.8303 36.814 47.7151 36.892 47.574C37.0405 47.1037 37.0839 46.6067 37.0191 46.118C37.0191 43.4803 37.0191 39.7875 37.2309 36.0526L36.3625 35.8838Z" fill="#231F20"/>
<path d="M94.631 46.5401C93.8065 45.9656 93.0896 45.2514 92.513 44.43C91.5367 43.0752 90.6386 41.6661 89.823 40.2097L83.4688 29.9333L88.1074 22.8221C90.9244 18.4963 93.5296 15.7109 90.4372 15.6898H86.3706H84.9091H83.8289H82.9181C82.8571 15.6873 82.7965 15.6994 82.7412 15.7251C82.6859 15.7508 82.6376 15.7893 82.6004 15.8375C82.4945 15.8375 82.4945 16.0274 82.6004 16.1329C82.6328 16.1889 82.6789 16.2357 82.7345 16.2689C82.7901 16.3021 82.8533 16.3207 82.9181 16.3228C84.4219 16.3228 89.9501 19.0027 87.366 22.9487L83.1299 29.469L78.1313 21.5349C74.9118 15.9008 73.0691 15.943 69.659 15.9008H64.2579H63.1565H62.3305H61.6315C61.4832 15.9008 61.3985 15.9008 61.3562 16.0485C61.3351 16.0949 61.3242 16.1453 61.3242 16.1962C61.3242 16.2471 61.3351 16.2975 61.3562 16.3439C61.3712 16.4034 61.4074 16.4555 61.458 16.4904C61.5086 16.5254 61.5703 16.5408 61.6315 16.5338C62.3866 16.5405 63.1231 16.768 63.7496 17.188C64.4935 17.6915 65.1575 18.3032 65.7194 19.0027C66.3548 19.889 67.2444 21.2817 68.4093 23.223C68.4093 23.223 70.8663 27.2112 73.5351 31.4948L67.5197 40.695C64.7027 45.0208 62.1187 47.8062 65.1899 47.8273H69.2566H70.718H71.7982H72.709C72.77 47.8298 72.8306 47.8177 72.8859 47.792C72.9412 47.7663 72.9895 47.7277 73.0267 47.6796C73.1397 47.5952 73.1397 47.4897 73.0267 47.3631C72.9906 47.3123 72.943 47.2706 72.8879 47.2413C72.8327 47.212 72.7715 47.1959 72.709 47.1943C71.2052 47.1943 65.677 44.5355 68.2611 40.5895L73.9163 31.9801C76.9028 36.8123 80.0163 41.8134 80.0799 41.94C83.7865 48.2704 86.4341 47.4475 92.9577 47.6163C93.2755 47.6163 93.8262 47.6163 94.2286 47.6163H95.3723H96.2831H97.1092C97.1718 47.6248 97.2355 47.6177 97.2946 47.5956C97.3538 47.5735 97.4065 47.5371 97.4481 47.4897C97.4687 47.4469 97.4794 47.4 97.4794 47.3525C97.4794 47.305 97.4687 47.2582 97.4481 47.2154C97.4103 47.1625 97.3588 47.1208 97.2991 47.0948C97.2394 47.0688 97.1738 47.0594 97.1092 47.0676C96.2502 47.121 95.393 46.9386 94.631 46.5401Z" fill="#231F20"/>
<path d="M131.803 46.5401C130.978 45.9656 130.262 45.2514 129.685 44.43C128.716 43.07 127.818 41.6614 126.995 40.2097L120.641 29.9333L125.3 22.8221C128.096 18.4963 130.702 15.7109 127.609 15.6898H123.542H122.081H121.001H120.09C120.029 15.6873 119.968 15.6994 119.913 15.7251C119.858 15.7508 119.809 15.7893 119.772 15.8375C119.772 15.8375 119.772 16.0274 119.772 16.1329C119.805 16.1889 119.851 16.2357 119.906 16.2689C119.962 16.3021 120.025 16.3207 120.09 16.3228C121.594 16.3228 127.143 19.0027 124.538 22.9487L120.302 29.469L115.303 21.5349C112.105 15.9008 110.241 15.943 106.831 15.9008H101.43H100.328H99.5024H98.8034C98.7479 15.8947 98.6918 15.9055 98.6426 15.9319C98.5934 15.9583 98.5535 15.999 98.528 16.0485C98.507 16.0949 98.4961 16.1453 98.4961 16.1962C98.4961 16.2471 98.507 16.2975 98.528 16.3439C98.5466 16.4013 98.5836 16.451 98.6334 16.4854C98.6832 16.5197 98.7429 16.5367 98.8034 16.5338C99.5953 16.5137 100.373 16.7426 101.027 17.188C101.767 17.7397 102.417 18.4016 102.955 19.1504C103.59 20.0367 104.48 21.4294 105.645 23.3707C105.645 23.3707 108.102 27.3589 110.77 31.6425L104.755 40.8427C101.959 45.1685 99.3541 47.9539 102.425 47.975H106.492H107.953H109.055H109.944C110.008 47.9761 110.072 47.9634 110.13 47.9379C110.188 47.9124 110.241 47.8747 110.283 47.8273C110.283 47.8273 110.283 47.6374 110.283 47.5108C110.241 47.4615 110.189 47.4212 110.131 47.3922C110.073 47.3632 110.009 47.3461 109.944 47.342C108.441 47.342 102.912 44.6832 105.496 40.7372L111.152 32.1278C114.138 36.9601 117.252 41.9611 117.315 42.0877C121.022 48.4181 123.67 47.5952 130.193 47.764C130.511 47.764 131.062 47.764 131.464 47.764H132.714H133.624H134.45C134.62 47.764 134.747 47.764 134.789 47.6374C134.81 47.5946 134.821 47.5477 134.821 47.5002C134.821 47.4527 134.81 47.4059 134.789 47.3631C134.789 47.2576 134.62 47.2154 134.45 47.2154C133.52 47.2564 132.599 47.0214 131.803 46.5401Z" fill="#231F20"/>
<path d="M58.6451 47.257C57.7399 47.3952 56.8141 47.2476 55.9975 46.8349C55.6782 46.6433 55.4035 46.3861 55.1917 46.0805C54.9798 45.7748 54.8358 45.4278 54.769 45.0624C54.6207 44.4505 54.536 41.5596 54.4936 39.4072V26.9996C54.4936 24.8894 54.6207 22.7793 54.6419 21.26C54.6009 19.5783 54.7215 17.8966 55.002 16.2378C55.3424 14.7875 55.8248 13.374 56.4423 12.0175C57.6496 8.28258 57.7131 4.99075 54.3242 1.84663C53.1164 0.905923 51.621 0.406839 50.0881 0.432833C48.4656 0.355038 46.859 0.782825 45.4919 1.65672C44.9268 2.00674 44.4448 2.47482 44.0791 3.02859C43.7134 3.58237 43.4728 4.20864 43.3738 4.86414C43.2868 5.44353 43.3479 6.03543 43.5515 6.58503C43.7552 7.13462 44.0947 7.62414 44.5387 8.00826C45.6193 8.94616 47.0266 9.42358 48.4571 9.33765C50.0767 9.37541 51.668 8.91086 53.011 8.00826C53.5726 7.65941 54.0524 7.19435 54.4179 6.6446C54.7833 6.09485 55.0259 5.47325 55.1291 4.82194C55.1602 4.55555 55.1602 4.28646 55.1291 4.02008C55.9277 5.08911 56.4087 6.36019 56.5173 7.6884C56.6259 9.01661 56.3577 10.3485 55.7433 11.5322C55.1379 13.0766 54.2003 14.4701 52.9964 15.6148C51.7925 16.7595 50.3516 17.6276 48.7749 18.1581C46.2862 19.1056 43.6446 19.5919 40.9804 19.593C40.9364 19.5919 40.8933 19.606 40.8586 19.6329C40.8238 19.6598 40.7995 19.6979 40.7897 19.7407C40.764 19.7739 40.75 19.8147 40.75 19.8567C40.75 19.8987 40.764 19.9395 40.7897 19.9728C40.8854 20.0084 40.9907 20.0084 41.0863 19.9728C41.9664 19.8009 42.8786 19.9117 43.6915 20.2893C44.0084 20.4787 44.2817 20.7326 44.4934 21.0344C44.705 21.3362 44.8504 21.6791 44.92 22.0407C45.0914 22.9806 45.1765 23.9341 45.1741 24.8894V36.2209C45.1741 37.276 45.1741 39.8715 45.1741 42.2981C45.1152 42.9977 45.2079 43.7016 45.4461 44.3623C45.6842 45.023 46.0622 45.6249 46.5544 46.1273C47.0466 46.6296 47.6414 47.0207 48.2986 47.2738C48.9559 47.527 49.66 47.6364 50.3634 47.5946C53.7947 47.5946 57.7978 47.5946 58.8357 47.7634C58.8873 47.7534 58.9355 47.7308 58.9762 47.6977C59.0168 47.6645 59.0486 47.6219 59.0687 47.5735C59.0946 47.5247 59.1082 47.4704 59.1082 47.4152C59.1082 47.3601 59.0946 47.3057 59.0687 47.257C59.0043 47.2199 58.9312 47.2004 58.8569 47.2004C58.7825 47.2004 58.7095 47.2199 58.6451 47.257Z" fill="#231F20"/>
<path d="M153.872 47.3637C153.79 47.2919 153.684 47.2541 153.575 47.2582C152.67 47.3964 151.744 47.2488 150.928 46.8361C150.608 46.6445 150.334 46.3873 150.122 46.0817C149.91 45.776 149.766 45.429 149.699 45.0636C149.551 44.4517 149.466 41.5608 149.424 39.4084V27.0008C149.424 24.8906 149.551 22.7805 149.572 21.2612C149.531 19.5795 149.652 17.8978 149.932 16.239C150.273 14.7887 150.755 13.3752 151.372 12.0187C152.559 8.24156 152.559 4.94973 149.17 1.80562C147.962 0.864907 146.466 0.365824 144.934 0.391818C143.311 0.314023 141.704 0.741809 140.337 1.6157C139.772 1.96573 139.29 2.4338 138.925 2.98758C138.559 3.54135 138.318 4.16763 138.219 4.82312C138.12 5.40549 138.17 6.00353 138.367 6.56095C138.563 7.11837 138.899 7.61684 139.342 8.00945C140.422 8.94734 141.83 9.42477 143.26 9.33884C144.901 9.38989 146.517 8.92476 147.878 8.00945C148.437 7.65749 148.914 7.19157 149.279 6.64237C149.644 6.09317 149.889 5.47314 149.996 4.82312C150.027 4.55674 150.027 4.28765 149.996 4.02127C150.794 5.0903 151.275 6.36138 151.384 7.68959C151.493 9.0178 151.224 10.3497 150.61 11.5334C150.009 13.0734 149.078 14.4642 147.882 15.6086C146.685 16.753 145.253 17.6235 143.684 18.1592C141.195 19.1068 138.554 19.5931 135.889 19.5941C135.845 19.5931 135.802 19.6072 135.768 19.6341C135.733 19.661 135.709 19.6991 135.699 19.7419C135.669 19.7732 135.652 19.8147 135.652 19.8579C135.652 19.9011 135.669 19.9426 135.699 19.974C135.794 20.0096 135.9 20.0096 135.995 19.974C136.868 19.7929 137.777 19.9042 138.579 20.2905C138.902 20.4733 139.179 20.7253 139.392 21.0283C139.604 21.3312 139.746 21.6775 139.808 22.0419C139.999 22.9794 140.091 23.9341 140.083 24.8906V36.2221C140.083 37.2772 140.083 39.8727 140.083 42.2993C140.024 42.9989 140.117 43.7028 140.355 44.3635C140.593 45.0242 140.971 45.6261 141.463 46.1285C141.956 46.6308 142.55 47.0218 143.208 47.275C143.865 47.5282 144.569 47.6376 145.272 47.5958C148.682 47.5958 152.707 47.5958 153.745 47.7646C153.8 47.7579 153.853 47.7369 153.897 47.7036C153.942 47.6702 153.977 47.6258 153.999 47.5747C153.985 47.4909 153.939 47.4156 153.872 47.3637Z" fill="#231F20"/>
</g>
<defs>
<clipPath id="clip0_701_278">
<rect width="154" height="48" fill="white"/>
</clipPath>
</defs>
</svg>
