<svg width="24" height="24" viewBox="0 0 24 24" fill="none" xmlns="http://www.w3.org/2000/svg">
<g clip-path="url(#clip0_366_15783)">
<path d="M6.25027 9.27176V8.71875C6.25027 5.40504 8.93656 2.71875 12.2503 2.71875C15.564 2.71875 18.2503 5.40504 18.2503 8.71875V9.94624C18.2503 11.1612 18.7329 12.3264 19.592 13.1855L19.9234 13.5169C21.5198 15.1133 20.6741 17.8453 18.4551 18.2606C14.1889 19.0591 9.81163 19.0591 5.54548 18.2606C3.32642 17.8453 2.48075 15.1133 4.0771 13.5169L4.78515 12.8089C5.72325 11.8708 6.25027 10.5984 6.25027 9.27176Z" stroke="currentColor" stroke-width="1.5"/>
<path d="M9.25049 18.3125V18.5313C9.25049 20.05 10.4817 21.2813 12.0005 21.2813C13.5193 21.2813 14.7505 20.05 14.7505 18.5313V18.3125" stroke="currentColor" stroke-width="1.5"/>
</g>
<defs>
<clipPath id="clip0_366_15783">
<rect width="24" height="24" fill="white"/>
</clipPath>
</defs>
</svg>
