<svg width="24" height="24" viewBox="0 0 24 24" fill="none" xmlns="http://www.w3.org/2000/svg">
<g clip-path="url(#clip0_701_298)">
<path d="M3.99812 8.48654L3.40939 8.02189L3.99812 8.48653C4.06941 8.39621 4.14544 8.30973 4.22591 8.22747C4.64728 7.79667 5.24493 7.53389 6.30453 7.39392C7.38233 7.25154 8.81061 7.25 10.8143 7.25L13.1858 7.25C15.1894 7.25 16.6177 7.25155 17.6955 7.39392C18.7551 7.53389 19.3527 7.79667 19.7741 8.22747C19.8546 8.30973 19.9306 8.39621 20.0019 8.48654C20.3752 8.95958 20.5594 9.58594 20.5626 10.6547C20.5659 11.7419 20.3846 13.1586 20.1282 15.1458C19.9252 16.719 19.7802 17.8329 19.5667 18.6788C19.3579 19.5064 19.1034 19.9886 18.7368 20.3415C18.6664 20.4093 18.593 20.4738 18.5168 20.5349C18.1199 20.8534 17.6091 21.0441 16.7616 21.1453C15.8953 21.2488 14.772 21.25 13.1857 21.25L10.8143 21.25C9.22802 21.25 8.10471 21.2488 7.23844 21.1453C6.3909 21.0441 5.88009 20.8534 5.48318 20.5349L5.01482 21.1187L5.48317 20.5349C5.40698 20.4738 5.33359 20.4093 5.2632 20.3415C4.89658 19.9886 4.64212 19.5064 4.43326 18.6788C4.21979 17.8329 4.0748 16.719 3.87181 15.1458C3.6154 13.1586 3.43415 11.7419 3.43743 10.6547C3.44065 9.58594 3.62478 8.95958 3.99812 8.48654Z" stroke="currentColor" stroke-width="1.5"/>
<path d="M17.5 7.1875C17.5 4.32252 15.0376 2 12 2C8.96243 2 6.5 4.32252 6.5 7.1875" stroke="currentColor" stroke-width="1.5" stroke-linecap="round"/>
<path d="M6.49646 9.90625H6.50544" stroke="currentColor" stroke-width="2" stroke-linecap="round" stroke-linejoin="round"/>
<path d="M17.4965 9.90625H17.5054" stroke="currentColor" stroke-width="2" stroke-linecap="round" stroke-linejoin="round"/>
</g>
<defs>
<clipPath id="clip0_701_298">
<rect width="24" height="24" fill="white"/>
</clipPath>
</defs>
</svg>
