<svg width="16" height="16" viewBox="0 0 16 16" fill="none" xmlns="http://www.w3.org/2000/svg">
<g clip-path="url(#clip0_366_14748)">
<path d="M5.33203 4.09363L5.33203 2.9793C5.33203 2.20277 5.33203 1.81451 5.56498 1.57327C5.79792 1.33203 6.17284 1.33203 6.92267 1.33203L9.07472 1.33203C9.82456 1.33203 10.1995 1.33203 10.4324 1.57327C10.6654 1.8145 10.6654 2.20277 10.6654 2.9793V4.09363" stroke="black"/>
<path d="M9.33203 7.47461V10.8079" stroke="black" stroke-linecap="round"/>
<path d="M6.66797 7.47461V10.8079" stroke="black" stroke-linecap="round"/>
<path d="M12.242 10.3668C12.1431 11.262 12.0725 11.8961 11.9677 12.3843C11.8649 12.8634 11.7388 13.1512 11.5591 13.371C11.4171 13.5445 11.2491 13.695 11.061 13.817C10.8229 13.9715 10.5229 14.0653 10.0355 14.1149C9.53869 14.1654 8.90069 14.166 8.00004 14.166C7.09939 14.166 6.46139 14.1654 5.96461 14.1149C5.47714 14.0653 5.17722 13.9715 4.93906 13.817C4.75095 13.695 4.58294 13.5445 4.441 13.371C4.26128 13.1512 4.13514 12.8634 4.03235 12.3843C3.9276 11.8961 3.85696 11.262 3.75809 10.3668L3.06811 4.11963L12.932 4.11963L12.242 10.3668Z" stroke="black"/>
<path d="M2 4.08008H14" stroke="black" stroke-linecap="round"/>
</g>
<defs>
<clipPath id="clip0_366_14748">
<rect width="16" height="16" fill="white"/>
</clipPath>
</defs>
</svg>
