<svg width="24" height="24" viewBox="0 0 24 24" fill="none" xmlns="http://www.w3.org/2000/svg">
  <g clip-path="url(#clip0_366_13483)">
    <path
      d="M1.99609 10.9909C1.99609 8.693 1.99733 7.03652 2.14324 5.79689C2.28864 4.56167 2.56453 3.8856 2.99852 3.4454C3.40534 3.03276 3.93157 2.84516 4.89266 2.88379C5.89391 2.92403 7.21176 3.20234 9.09555 3.60399L16.5648 5.19653C18.3586 5.57897 18.9719 5.73351 19.4407 6.15974C19.5663 6.27396 19.6851 6.40275 19.7951 6.54521C19.999 6.80934 20.1658 7.15072 20.3428 7.70493C20.5224 8.26756 20.6961 8.99363 20.9397 10.0154C21.4258 12.054 21.7759 13.5263 21.9268 14.6759C22.0768 15.8196 22.0119 16.532 21.7604 17.0888C21.6284 17.3811 21.4639 17.644 21.2745 17.8707C20.9392 18.2721 20.4595 18.5191 19.5608 18.6538C18.634 18.7927 17.3947 18.7947 15.6295 18.7947H8.06717C6.43395 18.7947 5.29997 18.7923 4.4452 18.6534C3.6288 18.5207 3.1697 18.2783 2.82292 17.859C2.45913 17.4193 2.23451 16.8022 2.11636 15.7399C1.99719 14.6684 1.99609 13.2601 1.99609 11.2989V10.9909Z"
      stroke="currentColor" stroke-width="1.5" />
    <path
      d="M18.6802 19.402C18.6824 19.3924 18.6847 19.3829 18.6873 19.3734C18.73 19.2133 18.752 19.0459 18.752 18.8691C18.752 18.2981 18.534 17.7699 18.1724 17.3688L18.1658 17.3615L18.1659 17.3615C17.7666 16.9068 17.1687 16.6191 16.502 16.6191C15.8711 16.6191 15.2981 16.8775 14.8872 17.2995L18.6802 19.402ZM18.6802 19.402C18.631 19.6209 18.5426 19.8358 18.4289 20.02L18.4288 20.02M18.6802 19.402L18.4288 20.02M18.4288 20.02L18.4224 20.0307M18.4288 20.02L18.4224 20.0307M18.4224 20.0307C18.0351 20.6818 17.3228 21.1191 16.502 21.1191C15.9235 21.1191 15.4049 20.9013 15.013 20.5431L14.9981 20.5299M18.4224 20.0307L14.9981 20.5299M14.9981 20.5299C14.833 20.3867 14.691 20.2168 14.5834 20.0339L14.5753 20.0205M14.9981 20.5299L14.5753 20.0205M14.5753 20.0205C14.37 19.6875 14.252 19.291 14.252 18.8691M14.5753 20.0205L14.252 18.8691M14.252 18.8691C14.252 18.2607 14.4938 17.7042 14.8869 17.2998L14.252 18.8691Z"
      fill="white" stroke="currentColor" stroke-width="1.5" stroke-miterlimit="10" stroke-linecap="round"
      stroke-linejoin="round" />
    <path
      d="M9.68025 19.402C9.68241 19.3924 9.68475 19.3829 9.68728 19.3734C9.72996 19.2133 9.75195 19.0459 9.75195 18.8691C9.75195 18.2981 9.53396 17.7699 9.17237 17.3688L9.16583 17.3615L9.16587 17.3615C8.76663 16.9068 8.16866 16.6191 7.50195 16.6191C6.87107 16.6191 6.29812 16.8775 5.8872 17.2995L9.68025 19.402ZM9.68025 19.402C9.631 19.6209 9.54264 19.8358 9.42886 20.02L9.42878 20.02M9.68025 19.402L9.42878 20.02M9.42878 20.02L9.42238 20.0307M9.42878 20.02L9.42238 20.0307M9.42238 20.0307C9.03507 20.6818 8.32283 21.1191 7.50195 21.1191C6.92351 21.1191 6.40485 20.9013 6.01303 20.5431L5.99815 20.5299M9.42238 20.0307L5.99815 20.5299M5.99815 20.5299C5.83301 20.3867 5.691 20.2168 5.58339 20.0339L5.57532 20.0205M5.99815 20.5299L5.57532 20.0205M5.57532 20.0205C5.36996 19.6875 5.25195 19.291 5.25195 18.8691M5.57532 20.0205L5.25195 18.8691M5.25195 18.8691C5.25195 18.2607 5.49383 17.7042 5.8869 17.2998L5.25195 18.8691Z"
      fill="white" stroke="currentColor" stroke-width="1.5" stroke-miterlimit="10" stroke-linecap="round"
      stroke-linejoin="round" />
    <path d="M12.9434 4.54883L13.2775 9.2046C13.3554 10.289 14.2302 11.1449 15.3161 11.199L20.8081 11.4725"
      stroke="currentColor" stroke-width="1.5" />
  </g>
  <defs>
    <clipPath id="clip0_366_13483">
      <rect width="24" height="24" fill="white" />
    </clipPath>
  </defs>
</svg>