<svg width="16" height="16" viewBox="0 0 16 16" fill="none" xmlns="http://www.w3.org/2000/svg">
<g clip-path="url(#clip0_759_33175)">
<path d="M10.4869 8.58185L10.4746 8.59389C10.3682 8.69827 10.2948 8.77037 10.2283 8.84703C9.87985 9.24916 9.66878 9.75199 9.62581 10.2824C9.61762 10.3835 9.61763 10.4864 9.61765 10.6354L9.61765 10.655V11.6411C9.61765 13.0358 8.48707 14.1663 7.09244 14.1663C6.70027 14.1663 6.38235 13.8484 6.38235 13.4563V11.3238C6.38235 11.2912 6.38237 11.2591 6.38238 11.2274C6.38274 10.4928 6.38299 9.98231 6.1875 9.51661C5.99201 9.0509 5.62743 8.69351 5.10286 8.17928C5.08023 8.15709 5.0573 8.13461 5.03407 8.11182L5.03406 8.11181L3.3003 6.41057C2.93835 6.05542 2.81704 5.93198 2.73084 5.79515C2.64284 5.65546 2.57851 5.5022 2.54043 5.34155C2.50314 5.18419 2.5 5.01115 2.5 4.50406C2.5 3.94961 2.50037 3.56312 2.52439 3.26197C2.54796 2.96645 2.59192 2.7963 2.65584 2.66726C2.8016 2.37295 3.03994 2.13461 3.33425 1.98884C3.46329 1.92493 3.63344 1.88097 3.92896 1.8574C4.23011 1.83338 4.61661 1.83301 5.17105 1.83301H10.8289C11.3834 1.83301 11.7699 1.83338 12.071 1.8574C12.3666 1.88097 12.5367 1.92493 12.6657 1.98884C12.9601 2.13461 13.1984 2.37295 13.3442 2.66726C13.4081 2.7963 13.452 2.96645 13.4756 3.26197C13.4996 3.56312 13.5 3.94961 13.5 4.50406C13.5 5.01115 13.4969 5.18419 13.4596 5.34155C13.4215 5.5022 13.3572 5.65546 13.2692 5.79515C13.183 5.93198 13.0616 6.05542 12.6997 6.41057L10.4886 8.58022L10.4886 8.5802L10.4869 8.58185Z" stroke="#231F20"/>
</g>
<defs>
<clipPath id="clip0_759_33175">
<rect width="16" height="16" fill="white"/>
</clipPath>
</defs>
</svg>
