<svg width="20" height="20" viewBox="0 0 20 20" fill="none" xmlns="http://www.w3.org/2000/svg">
<g opacity="0.5" clip-path="url(#clip0_366_14993)">
<path d="M17.7087 9.99992C17.7087 10.4848 17.4937 11.1085 17.0456 11.8039C16.6037 12.4895 15.9666 13.1952 15.2044 13.8323C13.6649 15.119 11.7191 16.0416 10.0003 16.0416C8.28155 16.0416 6.33579 15.119 4.79622 13.8323C4.03402 13.1952 3.39694 12.4895 2.95509 11.8039C2.50692 11.1085 2.29199 10.4848 2.29199 9.99992C2.29199 9.51502 2.50692 8.89134 2.95509 8.19593C3.39694 7.51031 4.03402 6.80459 4.79622 6.16758C6.33579 4.88088 8.28155 3.95825 10.0003 3.95825C11.7191 3.95825 13.6649 4.88088 15.2044 6.16758C15.9666 6.80459 16.6037 7.51031 17.0456 8.19593C17.4937 8.89134 17.7087 9.51502 17.7087 9.99992Z" stroke="#231F20" stroke-width="1.25"/>
<circle cx="10.0007" cy="9.99992" r="2.29167" stroke="#231F20" stroke-width="1.25"/>
<path d="M16.1338 3.86719L3.86867 16.1323" stroke="#231F20" stroke-width="1.25" stroke-linecap="round" stroke-linejoin="round"/>
</g>
<defs>
<clipPath id="clip0_366_14993">
<rect width="20" height="20" fill="white"/>
</clipPath>
</defs>
</svg>
