<svg width="24" height="24" viewBox="0 0 24 24" fill="none" xmlns="http://www.w3.org/2000/svg">
<g clip-path="url(#clip0_366_15766)">
<path d="M2.82812 8.61417V8.64746C2.82812 10.3782 4.23114 11.7812 5.96185 11.7812V11.7812C7.69256 11.7812 9.09557 10.3782 9.09557 8.64746V3.28784" stroke="currentColor" stroke-width="1.5" stroke-linecap="round"/>
<rect x="2.75" y="2.75" width="18.5" height="18.5" rx="6.28499" stroke="currentColor" stroke-width="1.5"/>
<path d="M21.1719 8.61417V8.64746C21.1719 10.3782 19.7689 11.7812 18.0382 11.7812V11.7812C16.3074 11.7812 14.9044 10.3782 14.9044 8.64746V3.28784" stroke="currentColor" stroke-width="1.5" stroke-linecap="round"/>
<path d="M9.0957 3V8.87682C9.0957 10.4809 10.3961 11.7812 12.0001 11.7812V11.7812C13.6042 11.7812 14.9046 10.4809 14.9046 8.87682V3" stroke="currentColor" stroke-width="1.5" stroke-linecap="round"/>
<path d="M14.9043 20.8438L14.9043 18.5919C14.9043 16.9879 13.6039 15.6875 11.9999 15.6875V15.6875C10.3958 15.6875 9.09544 16.9879 9.09544 18.5919L9.09544 20.8437" stroke="currentColor" stroke-width="1.5" stroke-linecap="round"/>
</g>
<defs>
<clipPath id="clip0_366_15766">
<rect width="24" height="24" fill="white"/>
</clipPath>
</defs>
</svg>
