<svg width="36" height="20" viewBox="0 0 36 20" fill="none" xmlns="http://www.w3.org/2000/svg">
<g clip-path="url(#clip0_654_12281)">
<path d="M32.5369 0.0136719H3.46486C1.55666 0.0136719 0.00976562 1.55951 0.00976562 3.46639V16.5373C0.00976562 18.4442 1.55666 19.9901 3.46486 19.9901H32.5369C34.4451 19.9901 35.992 18.4442 35.992 16.5373V3.46639C35.992 1.55951 34.4451 0.0136719 32.5369 0.0136719Z" fill="#FFB3C7"/>
<path fill-rule="evenodd" clip-rule="evenodd" d="M32.6226 11.7391C32.1518 11.7391 31.7702 12.1239 31.7702 12.5987C31.7702 13.0733 32.1518 13.4582 32.6226 13.4582C33.0934 13.4582 33.4751 13.0733 33.4751 12.5987C33.4751 12.1239 33.0934 11.7391 32.6226 11.7391ZM29.8181 11.0746C29.8181 10.4246 29.2672 9.89789 28.5876 9.89789C27.908 9.89789 27.357 10.4247 27.357 11.0746C27.357 11.7245 27.9079 12.2514 28.5876 12.2514C29.2673 12.2514 29.8181 11.7245 29.8181 11.0746ZM29.8227 8.78752H31.1807V13.3615H29.8227V13.0692C29.439 13.333 28.9759 13.4881 28.4764 13.4881C27.1546 13.4881 26.0829 12.4075 26.0829 11.0746C26.0829 9.74157 27.1546 8.66109 28.4764 8.66109C28.9759 8.66109 29.439 8.81619 29.8227 9.08011V8.78752ZM18.9545 9.38332V8.78759H17.564V13.3615H18.9576V11.226C18.9576 10.5055 19.732 10.1183 20.2693 10.1183C20.2749 10.1183 20.28 10.1188 20.2855 10.1189V8.78795C19.734 8.78795 19.2267 9.02598 18.9545 9.38332ZM15.4909 11.0746C15.4909 10.4247 14.9399 9.89791 14.2603 9.89791C13.5807 9.89791 13.0297 10.4247 13.0297 11.0746C13.0297 11.7245 13.5807 12.2514 14.2603 12.2514C14.94 12.2514 15.4909 11.7245 15.4909 11.0746ZM15.4954 8.78754H16.8535V13.3615H15.4954V13.0692C15.1117 13.333 14.6486 13.4881 14.1492 13.4881C12.8273 13.4881 11.7556 12.4076 11.7556 11.0746C11.7556 9.74159 12.8273 8.66111 14.1492 8.66111C14.6486 8.66111 15.1117 8.8162 15.4954 9.08013V8.78754ZM23.6697 8.66452C23.1272 8.66452 22.6138 8.83436 22.2705 9.30292V8.78781H20.9183V13.3615H22.2871V10.9579C22.2871 10.2623 22.7497 9.92175 23.3066 9.92175C23.9035 9.92175 24.2466 10.2813 24.2466 10.9485V13.3615H25.6031V10.4529C25.6031 9.38846 24.7638 8.66452 23.6697 8.66452ZM9.7774 13.3615H11.1989V6.74926H9.7774V13.3615ZM3.5332 13.3634H5.03838V6.74806H3.5332V13.3634ZM8.7978 6.74806C8.7978 8.18021 8.24432 9.51248 7.25808 10.5027L9.33865 13.3636H7.47957L5.21845 10.2545L5.80201 9.81378C6.76977 9.08278 7.32486 7.96541 7.32486 6.74805L8.7978 6.74806Z" fill="#231F20"/>
</g>
<defs>
<clipPath id="clip0_654_12281">
<rect width="36" height="20" fill="white"/>
</clipPath>
</defs>
</svg>
