<svg width="72" height="72" viewBox="0 0 72 72" fill="none" xmlns="http://www.w3.org/2000/svg">
<rect x="0.5" y="0.5" width="71" height="71" rx="11.5" stroke="#BA8661"/>
<path d="M33.9995 21C34.3642 21.7654 34.4763 22.6268 34.3195 23.46C34.3224 24.027 34.1031 24.5726 33.7088 24.98C33.3145 25.3875 32.7763 25.6243 32.2095 25.64C30.2631 25.9109 28.3919 26.5743 26.7095 27.59C26.138 27.8566 25.6322 28.2456 25.2278 28.7295C24.8234 29.2134 24.5304 29.7803 24.3695 30.39C24.3034 30.8606 24.0846 31.2964 23.7468 31.6306C23.409 31.9648 22.9708 32.1789 22.4995 32.24C21.4995 32.46 20.4995 32.61 19.4495 32.84C18.2795 33.11 17.9395 33.84 18.3595 34.9C18.4142 35.0679 18.488 35.229 18.5795 35.38C19.1295 36.28 19.6895 37.18 20.2695 38.07C20.5046 38.4618 20.8574 38.7694 21.2776 38.949C21.6977 39.1285 22.1639 39.1709 22.6095 39.07C23.563 38.8509 24.5445 38.7801 25.5195 38.86C27.9395 39.27 33.9295 42.11 35.9795 43.43C37.4295 44.36 38.8795 45.77 33.8795 49.98C31.1795 51.61 30.0995 54.87 29.8795 57.2C29.7725 58.3689 29.3471 59.486 28.6495 60.43C28.5437 60.6476 28.3788 60.831 28.1737 60.9593C27.9686 61.0876 27.7315 61.1556 27.4895 61.1556C27.2476 61.1556 27.0105 61.0876 26.8054 60.9593C26.6003 60.831 26.4354 60.6476 26.3295 60.43C25.756 59.6078 25.3422 58.6851 25.1095 57.71C24.7095 56.38 24.5395 54.99 24.2095 53.65C24.0341 52.6136 23.6414 51.626 23.0571 50.7522C22.4729 49.8784 21.7103 49.1381 20.8195 48.58C20.4198 48.3247 20.0797 47.9862 19.8226 47.5875C19.5654 47.1889 19.3973 46.7395 19.3295 46.27C19.1917 45.6552 19.108 45.0295 19.0795 44.4C19.0797 43.6575 19.0296 42.9158 18.9295 42.18C18.7713 41.4442 18.4491 40.7536 17.9868 40.1597C17.5244 39.5658 16.934 39.0839 16.2595 38.75C15.1289 38.113 14.055 37.3803 13.0495 36.56C10.8207 34.5753 9.16919 32.0256 8.26953 29.18" stroke="#BA8661" stroke-linecap="round" stroke-linejoin="round"/>
<path d="M58.0709 16.3799C58.0588 16.3729 58.045 16.3691 58.0309 16.3691C58.0169 16.3691 58.0031 16.3729 57.9909 16.3799C57.2909 16.7799 56.4909 16.9399 55.7609 17.2699C54.7525 17.5735 53.7801 17.9859 52.8609 18.4999C52.3499 18.7569 51.9101 19.1358 51.5805 19.6033C51.2508 20.0707 51.0414 20.6122 50.9709 21.1799C50.8518 22.25 50.9401 23.3331 51.2309 24.3699C51.2602 24.5615 51.359 24.7356 51.5083 24.8591C51.6577 24.9827 51.8472 25.047 52.0409 25.0399C52.9 25.0948 53.7618 25.0948 54.6209 25.0399C55.9509 24.9199 57.2709 24.7598 58.6209 24.7198C60.3509 24.7198 61.2009 25.7799 60.7009 27.4099C60.4709 28.1499 60.2209 29.0599 59.2309 29.0899C56.5019 29.2874 53.7587 29.1022 51.0809 28.5399C50.7855 28.4547 50.4712 28.4618 50.1799 28.5601C49.8887 28.6583 49.6343 28.8432 49.4509 29.0899C49.1734 29.3651 48.9674 29.7039 48.8506 30.0768C48.7339 30.4498 48.7099 30.8456 48.7809 31.2299C48.796 31.3293 48.796 31.4305 48.7809 31.5299C48.6138 32.2541 48.297 32.9354 47.8509 33.5299C47.3209 34.4099 43.6909 37.0899 47.5709 42.1299" stroke="#BA8661" stroke-linecap="round" stroke-linejoin="round"/>
<path d="M54.5398 59.7692C49.2679 63.7775 42.7988 65.8918 36.1773 65.7707C29.5557 65.6496 23.1683 63.3002 18.0464 59.1019C12.9245 54.9036 9.36719 49.1015 7.94891 42.6325C6.53063 36.1635 7.33418 29.4053 10.2298 23.4492" stroke="#BA8661" stroke-linecap="round" stroke-linejoin="round"/>
<path d="M27.4805 8.38856C32.8758 6.62057 38.6671 6.44931 44.1575 7.8954C49.6479 9.34148 54.6035 12.3433 58.428 16.5396C62.2524 20.736 64.7828 25.948 65.7147 31.5487C66.6465 37.1493 65.9401 42.8999 63.6805 48.1085" stroke="#BA8661" stroke-linecap="round" stroke-linejoin="round"/>
<path d="M63.4213 50.0992C64.4813 46.9192 61.5014 42.6292 57.0714 43.1692C55.7774 43.3259 54.5714 43.906 53.6413 44.8192C53.1231 43.9129 52.351 43.1781 51.4203 42.7052C50.4896 42.2324 49.4408 42.0422 48.4033 42.1581C47.3657 42.2739 46.3848 42.6908 45.5813 43.3573C44.7778 44.0239 44.1869 44.9109 43.8814 45.9092H43.4114H42.9813C42.0665 46.0205 41.188 46.3347 40.4101 46.8289C39.6321 47.3231 38.9744 47.9847 38.4848 48.7655C37.9952 49.5463 37.6861 50.4266 37.5801 51.3421C37.4741 52.2576 37.574 53.1852 37.8722 54.0572C38.1705 54.9292 38.6597 55.7237 39.3042 56.3825C39.9487 57.0413 40.7321 57.5478 41.5974 57.8652C42.4626 58.1826 43.3878 58.3028 44.3055 58.217C45.2231 58.1311 46.11 57.8415 46.9013 57.3692C47.0229 57.7602 47.2681 58.1013 47.6002 58.3409C47.9323 58.5806 48.3332 58.7059 48.7427 58.698C49.1521 58.6901 49.5479 58.5494 49.8705 58.2972C50.1931 58.0449 50.425 57.6946 50.5314 57.2992C51.0673 58.0264 51.7679 58.6164 52.5758 59.0207C53.3837 59.4251 54.2758 59.6324 55.1792 59.6255C56.0826 59.6187 56.9715 59.3979 57.7732 58.9814C58.5748 58.5649 59.2664 57.9644 59.7913 57.2292C62.5913 59.0092 64.2213 57.8892 65.8913 55.5092C66.6413 54.4292 67.1513 52.1592 70.1413 51.7092C69.3976 50.6831 68.3115 49.9568 67.0791 49.6615C65.8466 49.3663 64.5493 49.5215 63.4213 50.0992Z" stroke="#BA8661" stroke-linecap="round" stroke-linejoin="round"/>
<path d="M59.9108 49.7985C59.9734 49.6373 60.0005 49.4645 59.9901 49.2919C59.9798 49.1193 59.9322 48.951 59.8508 48.7985C59.6505 48.3939 59.2991 48.0844 58.8725 47.9366C58.446 47.7888 57.9785 47.8146 57.5708 48.0085C57.0071 48.2884 56.5759 48.7786 56.3701 49.3734C56.1644 49.9682 56.2005 50.6201 56.4708 51.1885C56.8594 51.9841 57.5455 52.5947 58.3808 52.8885C58.8597 53.0504 59.3684 53.1049 59.8708 53.0485C60.2466 53.0051 60.612 52.8968 60.9508 52.7285C61.5271 52.4706 62.045 52.0983 62.473 51.6342C62.901 51.17 63.2303 50.6238 63.4408 50.0285" stroke="#BA8661" stroke-linecap="round" stroke-linejoin="round"/>
<path d="M44.47 49.7497C44.1077 49.7215 43.7487 49.8364 43.47 50.0697C43.088 50.3892 42.8468 50.8459 42.7981 51.3416C42.7495 51.8372 42.8974 52.332 43.21 52.7197C43.6508 53.252 44.2846 53.5879 44.9726 53.6535C45.6607 53.7191 46.3466 53.5092 46.88 53.0697C47.4606 52.5875 47.878 51.9376 48.0749 51.209C48.2718 50.4804 48.2387 49.7087 47.98 48.9997C47.8389 48.6089 47.6289 48.2465 47.36 47.9297C46.9389 47.3734 46.4086 46.909 45.8016 46.5651C45.1945 46.2212 44.5236 46.005 43.83 45.9297" stroke="#BA8661" stroke-linecap="round" stroke-linejoin="round"/>
<path d="M8.83939 16.3585C8.50939 13.8985 9.13938 11.3585 11.6194 9.8385C13.8794 8.4885 16.9694 9.13849 17.9294 10.0785C19.0294 8.14849 20.7494 6.27845 23.6794 6.59845C24.7775 6.72535 25.8141 7.17214 26.6603 7.8833C27.5066 8.59445 28.1253 9.53861 28.4394 10.5984H28.9394H29.3894C30.3647 10.7144 31.3017 11.047 32.1319 11.5717C32.9622 12.0964 33.6646 12.8001 34.1879 13.6312C34.7112 14.4624 35.0421 15.3999 35.1564 16.3754C35.2707 17.3509 35.1655 18.3396 34.8485 19.2692C34.5316 20.1988 34.0108 21.0458 33.3244 21.7482C32.6379 22.4507 31.8031 22.9908 30.8811 23.3291C29.959 23.6674 28.973 23.7953 27.9952 23.7035C27.0173 23.6117 26.0723 23.3025 25.2294 22.7985C25.1079 23.2242 24.8487 23.5977 24.4922 23.8602C24.1357 24.1228 23.7022 24.2596 23.2596 24.2493C22.817 24.239 22.3903 24.0822 22.0464 23.8033C21.7025 23.5245 21.4609 23.1394 21.3594 22.7085C20.7902 23.4832 20.0454 24.1118 19.1862 24.5429C18.327 24.974 17.3778 25.1952 16.4165 25.1884C15.4552 25.1815 14.5093 24.9468 13.6562 24.5036C12.8032 24.0603 12.0675 23.4212 11.5094 22.6385C8.50937 24.5285 3.88937 23.0585 1.85938 20.7385C5.23938 20.5485 7.72939 19.1085 8.83939 16.3585Z" stroke="#BA8661" stroke-linecap="round" stroke-linejoin="round"/>
<path d="M14.3187 20.2495C14.4155 20.3992 14.5416 20.5278 14.6894 20.6274C14.8372 20.7271 15.0036 20.7959 15.1787 20.8295C15.6505 20.9243 16.1407 20.8295 16.5431 20.5656C16.9455 20.3017 17.2277 19.8899 17.3287 19.4194C17.3957 19.091 17.397 18.7526 17.3326 18.4237C17.2681 18.0948 17.1393 17.7819 16.9533 17.5031C16.7674 17.2242 16.5282 16.9849 16.2493 16.7989C15.9705 16.6129 15.6576 16.4839 15.3287 16.4194C14.8706 16.3349 14.4003 16.3427 13.9452 16.4423C13.4902 16.5419 13.0596 16.7313 12.6787 16.9995C12.2298 17.2946 11.8536 17.6878 11.5787 18.1495C11.3741 18.4963 11.2288 18.8748 11.1487 19.2695C10.9936 19.9237 10.9738 20.6026 11.0908 21.2647C11.2077 21.9268 11.4588 22.558 11.8287 23.1195" stroke="#BA8661" stroke-linecap="round" stroke-linejoin="round"/>
<path d="M27.8107 14.6796C28.0052 14.6599 28.2016 14.679 28.3887 14.7356C28.5758 14.7922 28.7498 14.8854 28.9007 15.0096C29.1047 15.1761 29.2738 15.3812 29.3983 15.6132C29.5228 15.8452 29.6003 16.0995 29.6263 16.3615C29.6524 16.6235 29.6264 16.8881 29.5499 17.14C29.4734 17.392 29.348 17.6263 29.1807 17.8297C28.709 18.3964 28.0328 18.7542 27.2988 18.8253C26.5649 18.8965 25.8325 18.6752 25.2607 18.2097C24.6337 17.6923 24.1826 16.9932 23.9695 16.2088C23.7564 15.4244 23.7918 14.5932 24.0707 13.8297C24.2275 13.4164 24.4504 13.0314 24.7307 12.6896C25.1852 12.1069 25.7524 11.6216 26.3983 11.2625C27.0443 10.9035 27.7559 10.678 28.4907 10.5996" stroke="#BA8661" stroke-linecap="round" stroke-linejoin="round"/>
</svg>
