<svg width="61" height="14" viewBox="0 0 61 14" fill="none" xmlns="http://www.w3.org/2000/svg">
<g clip-path="url(#clip0_654_12274)">
<path fill-rule="evenodd" clip-rule="evenodd" d="M5.32099 3.29594H9.4893C11.7273 3.29594 12.5698 4.36926 12.4396 5.9461C12.2255 8.55142 10.5642 9.98964 8.35953 9.98964H7.24698C6.94463 9.98964 6.74127 10.1782 6.6595 10.693L6.18177 13.6795C6.15057 13.8731 6.04297 13.9853 5.88157 14.0006H3.26804C3.02164 14.0006 2.93449 13.8222 2.99905 13.4359L4.59471 3.86165C4.65819 3.47839 4.87984 3.29492 5.32099 3.29492" fill="#009EE3"/>
<path fill-rule="evenodd" clip-rule="evenodd" d="M23.4197 3.11821C24.826 3.11821 26.1237 3.84089 25.9461 5.64198C25.7309 7.7825 24.5205 8.96691 22.6106 8.97201H20.9418C20.7018 8.97201 20.5856 9.15752 20.5232 9.53772L20.2004 11.4815C20.152 11.7751 19.9928 11.9198 19.7582 11.9198H18.2067C17.9592 11.9198 17.8731 11.77 17.928 11.4346L19.2116 3.64314C19.2751 3.25989 19.4268 3.11719 19.7033 3.11719L23.4197 3.11821ZM20.8912 7.28916H22.1555C22.9463 7.26062 23.4714 6.7418 23.5241 5.80608C23.5564 5.22814 23.1454 4.81431 22.489 4.81737H21.2979L20.8912 7.28916ZM30.1672 11.3235C30.3092 11.2022 30.4534 11.138 30.4329 11.2889L30.3823 11.6497C30.3565 11.8383 30.4351 11.9382 30.6201 11.9382H31.9995C32.2319 11.9382 32.3449 11.8495 32.4019 11.509L33.2477 6.45537C33.2907 6.20157 33.2251 6.07722 33.0217 6.07722H31.5089C31.3722 6.07722 31.3055 6.14959 31.27 6.34733L31.2141 6.65821C31.185 6.82028 31.1065 6.84882 31.0333 6.68573C30.7762 6.10881 30.1198 5.84991 29.2042 5.8703C27.0716 5.91209 25.6373 7.44103 25.4845 9.40011C25.3662 10.9168 26.5132 12.1084 28.026 12.1084C29.1235 12.1084 29.6141 11.8026 30.1672 11.3235ZM29.0126 10.5468C28.097 10.5468 27.4589 9.85472 27.5913 9.00667C27.7236 8.15861 28.5801 7.46651 29.4957 7.46651C30.4114 7.46651 31.0505 8.15454 30.9171 9.00667C30.7837 9.8588 29.9283 10.5468 29.0126 10.5468ZM35.9527 6.06193H34.5539C34.2655 6.06193 34.1482 6.26579 34.2397 6.51653L35.9763 11.3337L34.2655 13.6251C34.1224 13.8167 34.2332 13.991 34.4345 13.991H36.0064C36.0981 14.001 36.1908 13.9859 36.2736 13.9474C36.3564 13.9089 36.4257 13.8487 36.4734 13.7739L41.8145 6.51653C41.9792 6.29331 41.9017 6.05887 41.6316 6.05887H40.15C39.895 6.05887 39.7928 6.15468 39.6465 6.35548L37.4192 9.41336L36.4282 6.34631C36.3669 6.15774 36.2216 6.05989 35.9537 6.05989" fill="#113984"/>
<path fill-rule="evenodd" clip-rule="evenodd" d="M47.3768 3.11821C48.7831 3.11821 50.0807 3.84089 49.9031 5.64198C49.688 7.7825 48.4775 8.96692 46.5676 8.97201H44.8999C44.6599 8.97201 44.5437 9.15752 44.4813 9.53772L44.1585 11.4815C44.1101 11.7751 43.9509 11.9198 43.7163 11.9198H42.1637C41.9162 11.9198 41.8301 11.77 41.885 11.4346L43.1686 3.64314C43.2321 3.25989 43.3838 3.11719 43.6604 3.11719L47.3768 3.11821ZM44.8482 7.28916H46.1125C46.9033 7.26062 47.4284 6.7418 47.4822 5.80608C47.5145 5.22815 47.1024 4.81431 46.4471 4.81737H45.2571L44.8482 7.28916ZM54.121 11.3235C54.263 11.2022 54.4072 11.138 54.3867 11.2889L54.3361 11.6497C54.3103 11.8383 54.3889 11.9382 54.5739 11.9382H55.9533C56.1857 11.9382 56.2987 11.8495 56.3557 11.509L57.2058 6.45538C57.2488 6.20157 57.1832 6.07722 56.9798 6.07722H55.467C55.3303 6.07722 55.2636 6.14959 55.2281 6.34733L55.1722 6.65821C55.1431 6.82028 55.0646 6.84882 54.9914 6.68574C54.7343 6.10881 54.0779 5.84991 53.1623 5.8703C51.0297 5.91209 49.5954 7.44103 49.4416 9.40012C49.3232 10.9178 50.4713 12.1084 51.983 12.1084C53.0805 12.1084 53.5711 11.8026 54.1242 11.3235H54.121ZM52.9697 10.5468C52.054 10.5468 51.416 9.85472 51.5483 9.00667C51.6807 8.15862 52.5371 7.46651 53.4528 7.46651C54.3684 7.46651 55.0076 8.15454 54.8741 9.00667C54.7407 9.8588 53.8853 10.5468 52.9697 10.5468ZM59.3319 11.9473H57.7394C57.7117 11.9485 57.6841 11.9439 57.6585 11.9338C57.6329 11.9236 57.61 11.9083 57.5914 11.8888C57.5728 11.8694 57.559 11.8462 57.5509 11.8211C57.5428 11.796 57.5407 11.7695 57.5447 11.7435L58.9435 3.34959C58.9568 3.29229 58.9902 3.24097 59.0383 3.20395C59.0863 3.16694 59.1462 3.14642 59.2081 3.14573H60.7995C60.8273 3.1444 60.855 3.14892 60.8808 3.15896C60.9065 3.16901 60.9295 3.18433 60.9483 3.20382C60.967 3.22332 60.9809 3.2465 60.9891 3.2717C60.9972 3.29691 60.9993 3.32351 60.9953 3.34959L59.5966 11.7435C59.5832 11.8008 59.5498 11.8521 59.5017 11.8891C59.4537 11.9261 59.3938 11.9466 59.3319 11.9473Z" fill="#009EE3"/>
<path fill-rule="evenodd" clip-rule="evenodd" d="M2.71557 0H6.88603C8.0696 0 9.45868 0.0356753 10.3905 0.815435C11.0135 1.33629 11.3405 2.16498 11.2642 3.05788C11.0081 6.07601 9.10253 7.76702 6.54602 7.76702H4.48877C4.138 7.76702 3.90667 7.98719 3.80768 8.58245L3.23311 12.0481C3.19545 12.2723 3.09323 12.4048 2.91032 12.4211H0.335521C0.0503889 12.4211 -0.0507523 12.2173 0.0234897 11.7667L1.87416 0.656425C1.9484 0.212013 2.20556 0 2.71557 0Z" fill="#113984"/>
<path fill-rule="evenodd" clip-rule="evenodd" d="M3.86719 8.23136L4.59562 3.86165C4.6591 3.47839 4.88075 3.29492 5.32082 3.29492H9.49021C10.1799 3.29492 10.7383 3.39685 11.1752 3.58542C10.7566 6.27228 8.9221 7.76452 6.52053 7.76452H4.4622C4.19105 7.76452 3.98877 7.89601 3.86719 8.23136Z" fill="#172C70"/>
</g>
<defs>
<clipPath id="clip0_654_12274">
<rect width="61" height="14" fill="white"/>
</clipPath>
</defs>
</svg>
