<svg xmlns="http://www.w3.org/2000/svg" xmlns:xlink="http://www.w3.org/1999/xlink"><defs><style>
    .sprite-symbol-usage {display: none;}
    .sprite-symbol-usage:target {display: inline;}
  </style><symbol fill="none" viewBox="0 0 10 10" id="CaretRight_sprite"><path stroke="#454545" stroke-linecap="round" stroke-linejoin="round" d="M8.125 3.75 5 6.875 1.875 3.75" /></symbol><symbol fill="none" viewBox="0 0 24 24" id="alarm_sprite"><g clip-path="url(#clip0_366_15783)"><path stroke="currentColor" stroke-width="1.5" d="M6.25 9.272v-.553a6 6 0 0 1 12 0v1.227c0 1.215.483 2.38 1.342 3.24l.331.33c1.597 1.597.751 4.33-1.468 4.745a35.085 35.085 0 0 1-12.91 0c-2.219-.416-3.064-3.148-1.468-4.744l.708-.708A5.002 5.002 0 0 0 6.25 9.272Z" /><path stroke="currentColor" stroke-width="1.5" d="M9.25 18.313v.218a2.75 2.75 0 0 0 5.5 0v-.218" /></g></symbol><symbol fill="none" viewBox="0 0 16 16" id="arrow-back_sprite"><g clip-path="url(#clip0_366_16587)"><path stroke="currentColor" stroke-linecap="round" stroke-linejoin="round" d="M6.873 11.668 3.666 8.001l3.207-3.666" /><path stroke="currentColor" stroke-linecap="round" d="M3.917 8h8.415" /></g></symbol><symbol fill="none" viewBox="0 0 16 16" id="arrow-d_sprite"><path stroke="#231F20" stroke-linecap="round" stroke-linejoin="round" stroke-width="1.5" d="m13 6-5 5-5-5" /></symbol><symbol fill="none" viewBox="0 0 24 24" id="arrow-r-2_sprite"><g clip-path="url(#clip0_366_15716)"><path stroke="#101010" stroke-linecap="round" stroke-linejoin="round" stroke-width="1.5" d="m9.594 6.5 4.812 5.5-4.812 5.5" /></g></symbol><symbol fill="none" viewBox="0 0 13 12" id="arrow-r_sprite"><path stroke="currentColor" stroke-linecap="round" stroke-linejoin="round" d="M5 2.25 8.75 6 5 9.75" /></symbol><symbol fill="none" viewBox="0 0 24 24" id="box_sprite"><g clip-path="url(#clip0_366_13493)"><path stroke="currentColor" stroke-width="1.5" d="M10.802 3.071a2.396 2.396 0 0 1 2.396 0l5.935 3.427a2.396 2.396 0 0 1 1.198 2.075v6.854c0 .856-.456 1.647-1.198 2.075l-5.935 3.427a2.396 2.396 0 0 1-2.396 0l-5.936-3.427a2.396 2.396 0 0 1-1.198-2.075V8.573c0-.856.457-1.647 1.198-2.075l5.936-3.427ZM12 12v9" /><path stroke="currentColor" stroke-width="1.5" d="m20 7-8 5-8.5-5" /><path fill="white" stroke="currentColor" stroke-linecap="round" stroke-linejoin="round" stroke-miterlimit="10" stroke-width="1.5" d="M15.5 11.5c0 .28-.035.551-.105.814-.079.35-.219.691-.402.989A3.473 3.473 0 0 1 12 15a3.43 3.43 0 0 1-2.328-.901 3.223 3.223 0 0 1-.665-.796A3.43 3.43 0 0 1 8.5 11.5 3.495 3.495 0 0 1 12 8c1.033 0 1.969.446 2.599 1.164.56.621.901 1.444.901 2.336Z" /><path stroke="currentColor" stroke-linecap="round" stroke-linejoin="round" stroke-width="1.5" d="m10.688 11.5.874.875 1.75-1.75" /></g></symbol><symbol fill="none" viewBox="0 0 24 24" id="calendar_sprite"><g clip-path="url(#clip0_794_24332)"><circle cx="7.75" cy="12.875" r=".625" stroke="black" /><circle cx="7.75" cy="17.125" r=".625" stroke="black" /><circle cx="12" cy="12.875" r=".625" stroke="black" /><circle cx="12" cy="17.125" r=".625" stroke="black" /><circle cx="16.25" cy="12.875" r=".625" stroke="black" /><path stroke="black" stroke-linecap="round" stroke-width="1.5" d="M16 4.031v-2.5m-8 2.5v-2.5m12.5 6.657h-17" /><rect width="18.5" height="18.5" x="2.75" y="2.75" stroke="black" stroke-width="1.5" rx="5.25" /></g></symbol><symbol fill="none" viewBox="0 0 24 24" id="cart_sprite"><g clip-path="url(#clip0_701_298)"><path stroke="currentColor" stroke-width="1.5" d="m3.998 8.487-.589-.465.59.465a3.25 3.25 0 0 1 .227-.26c.421-.43 1.019-.693 2.079-.833 1.077-.142 2.506-.144 4.51-.144h2.37c2.004 0 3.433.002 4.51.144 1.06.14 1.658.403 2.08.833.08.083.156.17.227.26.373.473.557 1.099.56 2.168.004 1.087-.177 2.504-.434 4.49-.203 1.574-.348 2.688-.561 3.534-.21.827-.464 1.31-.83 1.663a3.23 3.23 0 0 1-.22.193c-.397.318-.908.51-1.755.61-.867.104-1.99.105-3.576.105h-2.372c-1.586 0-2.71-.001-3.576-.105-.847-.1-1.358-.292-1.755-.61l-.468.584.468-.584a3.229 3.229 0 0 1-.22-.194c-.366-.352-.62-.835-.83-1.662-.213-.846-.358-1.96-.561-3.533-.257-1.987-.438-3.404-.435-4.491.004-1.07.188-1.695.561-2.168Z" /><path stroke="currentColor" stroke-linecap="round" stroke-width="1.5" d="M17.5 7.188C17.5 4.322 15.038 2 12 2S6.5 4.323 6.5 7.188" /><path stroke="currentColor" stroke-linecap="round" stroke-linejoin="round" stroke-width="2" d="M6.496 9.906h.01m10.99 0h.01" /></g></symbol><symbol fill="none" viewBox="0 0 24 24" id="check_sprite"><g clip-path="url(#clip0_728_4810)"><path stroke="#231F20" stroke-linecap="round" stroke-linejoin="round" stroke-width="1.5" d="m3.75 12 5.5 5.25 11-10.5" /></g></symbol><symbol fill="none" viewBox="0 0 24 24" id="close_sprite"><g clip-path="url(#clip0_734_52149)"><path stroke="#231F20" stroke-linecap="round" stroke-width="1.5" d="m6.844 6.844 10.313 10.312m-.001-10.312L6.843 17.156" /></g></symbol><symbol fill="none" viewBox="0 0 16 16" id="del_sprite"><g clip-path="url(#clip0_366_14748)"><path stroke="black" d="M5.332 4.094V2.979c0-.776 0-1.164.233-1.406.233-.241.608-.241 1.358-.241h2.152c.75 0 1.125 0 1.357.241.233.242.233.63.233 1.406v1.115" /><path stroke="black" stroke-linecap="round" d="M9.332 7.475v3.333M6.668 7.475v3.333" /><path stroke="black" d="M12.242 10.367c-.099.895-.17 1.53-.274 2.017-.103.48-.23.767-.409.987-.142.173-.31.324-.498.446-.238.155-.538.248-1.025.298-.497.05-1.135.051-2.036.051-.9 0-1.539 0-2.035-.051-.488-.05-.788-.143-1.026-.298a2.167 2.167 0 0 1-.498-.446c-.18-.22-.306-.508-.409-.987-.104-.488-.175-1.122-.274-2.017l-.69-6.247h9.864l-.69 6.247Z" /><path stroke="black" stroke-linecap="round" d="M2 4.08h12" /></g></symbol><symbol fill="none" viewBox="0 0 24 24" id="delivery_sprite"><g clip-path="url(#clip0_366_13483)"><path stroke="currentColor" stroke-width="1.5" d="M1.996 10.99c0-2.297.001-3.953.147-5.193.146-1.235.422-1.911.856-2.352.406-.412.933-.6 1.894-.561 1 .04 2.319.318 4.203.72l7.469 1.593c1.794.382 2.407.537 2.876.963.125.114.244.243.354.385.204.264.37.606.548 1.16.18.563.353 1.289.597 2.31.486 2.039.836 3.511.987 4.66.15 1.145.085 1.857-.167 2.414a3.402 3.402 0 0 1-.486.782c-.335.401-.815.648-1.713.783-.927.139-2.166.14-3.931.14H8.067c-1.633 0-2.767-.002-3.622-.14-.816-.133-1.275-.376-1.622-.795-.364-.44-.588-1.057-.707-2.12-.119-1.07-.12-2.479-.12-4.44v-.308Z" /><path fill="white" stroke="currentColor" stroke-linecap="round" stroke-linejoin="round" stroke-miterlimit="10" stroke-width="1.5" d="M18.68 19.402a1.945 1.945 0 0 0 .072-.533c0-.57-.218-1.1-.58-1.5l-.006-.008h0a2.208 2.208 0 0 0-1.664-.742c-.63 0-1.204.259-1.615.68l3.793 2.103Zm0 0a2.05 2.05 0 0 1-.251.618h0m.251-.618-.251.618m0 0-.007.01m.007-.01-.007.01m0 0a2.227 2.227 0 0 1-1.92 1.09 2.191 2.191 0 0 1-1.489-.577l-.015-.013m3.424-.5-3.424.5m0 0a2.015 2.015 0 0 1-.415-.496l-.008-.014m.423.51-.423-.51m0 0a2.191 2.191 0 0 1-.323-1.15m.323 1.15-.323-1.15m0 0c0-.61.242-1.166.635-1.57l-.635 1.57Zm-4.572.532a1.946 1.946 0 0 0 .072-.533c0-.57-.218-1.1-.58-1.5l-.006-.008h0a2.208 2.208 0 0 0-1.664-.742c-.63 0-1.204.259-1.615.68l3.793 2.103Zm0 0a2.05 2.05 0 0 1-.251.618h0m.251-.618-.251.618m0 0-.007.01m.007-.01-.007.01m0 0a2.227 2.227 0 0 1-1.92 1.09 2.19 2.19 0 0 1-1.489-.577l-.015-.013m3.424-.5-3.424.5m0 0a2.015 2.015 0 0 1-.415-.496l-.008-.014m.423.51-.423-.51m0 0a2.19 2.19 0 0 1-.323-1.15m.323 1.15-.323-1.15m0 0c0-.61.242-1.166.635-1.57l-.635 1.57Z" /><path stroke="currentColor" stroke-width="1.5" d="m12.943 4.549.335 4.656a2.151 2.151 0 0 0 2.038 1.994l5.492.274" /></g></symbol><symbol fill="none" viewBox="0 0 24 24" id="deliverybox_sprite"><g clip-path="url(#clip0_366_15747)"><path stroke="currentColor" stroke-width="1.5" d="M10.802 3.071a2.396 2.396 0 0 1 2.396 0l5.936 3.427a2.396 2.396 0 0 1 1.198 2.075v6.854c0 .856-.457 1.647-1.198 2.075l-5.936 3.427a2.396 2.396 0 0 1-2.396 0l-5.936-3.427a2.396 2.396 0 0 1-1.198-2.075V8.573c0-.856.457-1.647 1.198-2.075l5.936-3.427ZM12 12v9" /><path stroke="currentColor" stroke-width="1.5" d="m20 7-8 5-8.5-5" /><path stroke="currentColor" stroke-width="1.5" d="m8.73 4.563 7.313 4.75v10.124" /></g></symbol><symbol viewBox="0 0 20 20" id="favorite-filled_sprite"><g clip-path="url(#clip0_541_24420)"><path d="M5 2.5 9.5 4 12 3l4-1 2 3.5-.5 4-5 6-2.5 2-5-4-2-4-1-5 3-2Z" /><path d="M10 4.204C4.26-1.166-5.465 5 10 17.738" /><path d="M9.999 4.204c5.74-5.37 15.463.796 0 13.534" /></g></symbol><symbol fill="none" viewBox="0 0 24 24" id="favorite_sprite"><g clip-path="url(#clip0_701_291)"><path stroke="currentColor" stroke-linecap="round" stroke-width="1.5" d="M12 5.046C5.112-1.398-6.556 6 12 21.286m0-16.24c6.888-6.444 18.556.955 0 16.24" /></g></symbol><symbol fill="none" viewBox="0 0 16 16" id="filter_sprite"><g clip-path="url(#clip0_759_33175)"><path stroke="#231F20" d="m10.487 8.582-.012.012c-.107.104-.18.176-.247.253a2.5 2.5 0 0 0-.602 1.435 4.418 4.418 0 0 0-.008.353v1.006a2.525 2.525 0 0 1-2.526 2.525.71.71 0 0 1-.71-.71v-2.229c0-.734.001-1.245-.194-1.71-.196-.466-.56-.823-1.085-1.338l-.069-.067L3.3 6.41c-.362-.356-.483-.479-.57-.616a1.5 1.5 0 0 1-.19-.453c-.037-.158-.04-.33-.04-.838 0-.554 0-.94.024-1.242.024-.296.068-.466.132-.595a1.5 1.5 0 0 1 .678-.678c.13-.064.3-.108.595-.132a17.34 17.34 0 0 1 1.242-.024h5.658c.554 0 .94 0 1.242.024.296.024.466.068.595.132a1.5 1.5 0 0 1 .678.678c.064.13.108.3.132.595.024.301.024.688.024 1.242 0 .507-.003.68-.04.838a1.5 1.5 0 0 1-.19.453c-.087.137-.208.26-.57.616l-2.211 2.17h-.002Z" /></g></symbol><symbol fill="none" viewBox="0 0 24 24" id="menu_sprite"><g clip-path="url(#clip0_846_22907)"><path stroke="#231F20" stroke-linecap="round" stroke-width="1.5" d="M3 6h18M3 12h18M3 18h18" /></g></symbol><symbol fill="none" viewBox="0 0 24 24" id="message_sprite"><g clip-path="url(#clip0_366_15776)"><rect width="18.5" height="14.5" x="2.75" y="4.75" stroke="currentColor" stroke-width="1.5" rx="3.25" /><path stroke="currentColor" stroke-linecap="round" stroke-width="1.5" d="m4 5.5 5.172 5.172c1.333 1.333 2 2 2.828 2 .828 0 1.495-.667 2.828-2L20 5.5" /></g></symbol><symbol fill="none" viewBox="0 0 16 16" id="minus_sprite"><path stroke="currentColor" stroke-linecap="round" stroke-linejoin="round" stroke-width="1.5" d="M2.5 8h11" /></symbol><symbol fill="none" viewBox="0 0 20 20" id="password-active_sprite"><g clip-path="url(#clip0_366_14993)" opacity=".5"><path stroke="#231F20" stroke-width="1.25" d="M17.709 10c0 .485-.215 1.108-.663 1.804-.442.685-1.08 1.391-1.842 2.028-1.54 1.287-3.485 2.21-5.204 2.21-1.718 0-3.664-.923-5.204-2.21-.762-.637-1.4-1.343-1.84-2.028-.45-.696-.664-1.32-.664-1.804 0-.485.215-1.109.663-1.804.442-.686 1.079-1.391 1.841-2.028C6.336 4.88 8.282 3.958 10 3.958c1.72 0 3.665.923 5.204 2.21.763.637 1.4 1.342 1.842 2.028.448.695.663 1.319.663 1.804Z" /><circle cx="10.001" cy="10" r="2.292" stroke="#231F20" stroke-width="1.25" /></g></symbol><symbol fill="none" viewBox="0 0 20 20" id="password_sprite"><g clip-path="url(#clip0_366_14993)" opacity=".5"><path stroke="#231F20" stroke-width="1.25" d="M17.709 10c0 .485-.215 1.108-.663 1.804-.442.685-1.08 1.391-1.842 2.028-1.54 1.287-3.485 2.21-5.204 2.21-1.718 0-3.664-.923-5.204-2.21-.762-.637-1.4-1.343-1.84-2.028-.45-.696-.664-1.32-.664-1.804 0-.485.215-1.109.663-1.804.442-.686 1.079-1.391 1.841-2.028C6.336 4.88 8.282 3.958 10 3.958c1.72 0 3.665.923 5.204 2.21.763.637 1.4 1.342 1.842 2.028.448.695.663 1.319.663 1.804Z" /><circle cx="10.001" cy="10" r="2.292" stroke="#231F20" stroke-width="1.25" /><path stroke="#231F20" stroke-linecap="round" stroke-linejoin="round" stroke-width="1.25" d="M16.134 3.867 3.869 16.132" /></g></symbol><symbol fill="none" viewBox="0 0 16 16" id="plus_sprite"><path stroke="currentColor" stroke-linecap="round" stroke-linejoin="round" stroke-width="1.5" d="M2.5 8h11M8 2.5v11" /></symbol><symbol fill="none" viewBox="0 0 24 24" id="recipt_sprite"><g clip-path="url(#clip0_366_15755)"><rect width="16.5" height="16.5" x="3.75" y="4.75" stroke="currentColor" stroke-width="1.5" rx="3.25" /><rect width="8.5" height="4.5" x="7.75" y="2.75" fill="white" stroke="currentColor" stroke-width="1.5" rx="2.25" /><path stroke="currentColor" stroke-linecap="round" stroke-width="1.5" d="M7 11.5h10m-10 3h6.666M7 17.5h3.334" /></g></symbol><symbol fill="none" viewBox="0 0 20 20" id="search_sprite"><g clip-path="url(#clip0_701_325)"><circle cx="9.77" cy="8.936" r="7.27" stroke="currentColor" stroke-width="1.25" /><path stroke="currentColor" stroke-linecap="round" stroke-width="1.25" d="m14.313 15.297 2.376 3.036" /></g></symbol><symbol fill="none" viewBox="0 0 24 24" id="shop_sprite"><g clip-path="url(#clip0_366_15766)"><path stroke="currentColor" stroke-linecap="round" stroke-width="1.5" d="M2.828 8.614v.033a3.134 3.134 0 0 0 3.134 3.134v0a3.134 3.134 0 0 0 3.134-3.134v-5.36" /><rect width="18.5" height="18.5" x="2.75" y="2.75" stroke="currentColor" stroke-width="1.5" rx="6.285" /><path stroke="currentColor" stroke-linecap="round" stroke-width="1.5" d="M21.172 8.614v.033a3.134 3.134 0 0 1-3.134 3.134v0a3.134 3.134 0 0 1-3.134-3.134v-5.36" /><path stroke="currentColor" stroke-linecap="round" stroke-width="1.5" d="M9.096 3v5.877c0 1.604 1.3 2.904 2.904 2.904v0c1.604 0 2.905-1.3 2.905-2.904V3m0 17.844v-2.252c0-1.604-1.301-2.904-2.905-2.904v0a2.904 2.904 0 0 0-2.905 2.904v2.252" /></g></symbol><symbol fill="none" viewBox="0 0 16 16" id="sort_sprite"><g clip-path="url(#clip0_759_33169)"><path stroke="#231F20" stroke-linecap="round" d="M2 4h12M4 8h8m-6 4h4" /></g></symbol><symbol fill="none" viewBox="0 0 20 19" id="star_sprite"><path fill="#FADFCC" d="M9.049.927c.3-.921 1.603-.921 1.902 0l1.519 4.674a1 1 0 0 0 .95.69h4.915c.969 0 1.371 1.24.588 1.81l-3.976 2.888a1 1 0 0 0-.363 1.118l1.518 4.674c.3.922-.755 1.688-1.539 1.118l-3.975-2.888a1 1 0 0 0-1.176 0l-3.976 2.888c-.783.57-1.838-.197-1.538-1.118l1.518-4.674a1 1 0 0 0-.363-1.118L1.077 8.101c-.783-.57-.38-1.81.588-1.81h4.914a1 1 0 0 0 .951-.69L9.05.927Z" /></symbol><symbol fill="none" viewBox="0 0 24 24" id="user_sprite"><g clip-path="url(#clip0_586_286)"><circle cx="12.002" cy="7.365" r="5.203" stroke="currentColor" stroke-width="1.5" /><path stroke="currentColor" stroke-linecap="round" stroke-width="1.5" d="M2 22.589v0c0-2.162 0-3.243.349-4.098a4.706 4.706 0 0 1 2.58-2.58c.854-.348 1.935-.348 4.097-.348h5.948c2.162 0 3.243 0 4.097.348a4.706 4.706 0 0 1 2.58 2.58c.349.855.349 1.936.349 4.098v0" /></g></symbol></defs><use id="CaretRight_sprite-usage" xlink:href="#CaretRight_sprite" class="sprite-symbol-usage" /><use id="alarm_sprite-usage" xlink:href="#alarm_sprite" class="sprite-symbol-usage" /><use id="arrow-back_sprite-usage" xlink:href="#arrow-back_sprite" class="sprite-symbol-usage" /><use id="arrow-d_sprite-usage" xlink:href="#arrow-d_sprite" class="sprite-symbol-usage" /><use id="arrow-r-2_sprite-usage" xlink:href="#arrow-r-2_sprite" class="sprite-symbol-usage" /><use id="arrow-r_sprite-usage" xlink:href="#arrow-r_sprite" class="sprite-symbol-usage" /><use id="box_sprite-usage" xlink:href="#box_sprite" class="sprite-symbol-usage" /><use id="calendar_sprite-usage" xlink:href="#calendar_sprite" class="sprite-symbol-usage" /><use id="cart_sprite-usage" xlink:href="#cart_sprite" class="sprite-symbol-usage" /><use id="check_sprite-usage" xlink:href="#check_sprite" class="sprite-symbol-usage" /><use id="close_sprite-usage" xlink:href="#close_sprite" class="sprite-symbol-usage" /><use id="del_sprite-usage" xlink:href="#del_sprite" class="sprite-symbol-usage" /><use id="delivery_sprite-usage" xlink:href="#delivery_sprite" class="sprite-symbol-usage" /><use id="deliverybox_sprite-usage" xlink:href="#deliverybox_sprite" class="sprite-symbol-usage" /><use id="favorite-filled_sprite-usage" xlink:href="#favorite-filled_sprite" class="sprite-symbol-usage" /><use id="favorite_sprite-usage" xlink:href="#favorite_sprite" class="sprite-symbol-usage" /><use id="filter_sprite-usage" xlink:href="#filter_sprite" class="sprite-symbol-usage" /><use id="menu_sprite-usage" xlink:href="#menu_sprite" class="sprite-symbol-usage" /><use id="message_sprite-usage" xlink:href="#message_sprite" class="sprite-symbol-usage" /><use id="minus_sprite-usage" xlink:href="#minus_sprite" class="sprite-symbol-usage" /><use id="password-active_sprite-usage" xlink:href="#password-active_sprite" class="sprite-symbol-usage" /><use id="password_sprite-usage" xlink:href="#password_sprite" class="sprite-symbol-usage" /><use id="plus_sprite-usage" xlink:href="#plus_sprite" class="sprite-symbol-usage" /><use id="recipt_sprite-usage" xlink:href="#recipt_sprite" class="sprite-symbol-usage" /><use id="search_sprite-usage" xlink:href="#search_sprite" class="sprite-symbol-usage" /><use id="shop_sprite-usage" xlink:href="#shop_sprite" class="sprite-symbol-usage" /><use id="sort_sprite-usage" xlink:href="#sort_sprite" class="sprite-symbol-usage" /><use id="star_sprite-usage" xlink:href="#star_sprite" class="sprite-symbol-usage" /><use id="user_sprite-usage" xlink:href="#user_sprite" class="sprite-symbol-usage" /></svg>