<svg xmlns="http://www.w3.org/2000/svg" xmlns:xlink="http://www.w3.org/1999/xlink"><defs><style>
    .sprite-symbol-usage {display: none;}
    .sprite-symbol-usage:target {display: inline;}
  </style><symbol fill="none" viewBox="0 0 13 12" id="arrow-r_sprite"><path stroke="currentColor" stroke-linecap="round" stroke-linejoin="round" d="M5 2.25 8.75 6 5 9.75" /></symbol><symbol fill="none" viewBox="0 0 24 24" id="cart_sprite"><g clip-path="url(#clip0_701_298)"><path stroke="currentColor" stroke-width="1.5" d="m3.998 8.487-.589-.465.59.465a3.25 3.25 0 0 1 .227-.26c.421-.43 1.019-.693 2.079-.833 1.077-.142 2.506-.144 4.51-.144h2.37c2.004 0 3.433.002 4.51.144 1.06.14 1.658.403 2.08.833.08.083.156.17.227.26.373.473.557 1.099.56 2.168.004 1.087-.177 2.504-.434 4.49-.203 1.574-.348 2.688-.561 3.534-.21.827-.464 1.31-.83 1.663a3.23 3.23 0 0 1-.22.193c-.397.318-.908.51-1.755.61-.867.104-1.99.105-3.576.105h-2.372c-1.586 0-2.71-.001-3.576-.105-.847-.1-1.358-.292-1.755-.61l-.468.584.468-.584a3.229 3.229 0 0 1-.22-.194c-.366-.352-.62-.835-.83-1.662-.213-.846-.358-1.96-.561-3.533-.257-1.987-.438-3.404-.435-4.491.004-1.07.188-1.695.561-2.168Z" /><path stroke="currentColor" stroke-linecap="round" stroke-width="1.5" d="M17.5 7.188C17.5 4.322 15.038 2 12 2S6.5 4.323 6.5 7.188" /><path stroke="currentColor" stroke-linecap="round" stroke-linejoin="round" stroke-width="2" d="M6.496 9.906h.01m10.99 0h.01" /></g></symbol><symbol fill="none" viewBox="0 0 24 24" id="check_sprite"><g clip-path="url(#clip0_728_4810)"><path stroke="#231F20" stroke-linecap="round" stroke-linejoin="round" stroke-width="1.5" d="m3.75 12 5.5 5.25 11-10.5" /></g></symbol><symbol fill="none" viewBox="0 0 24 24" id="favorite_sprite"><g clip-path="url(#clip0_701_291)"><path stroke="currentColor" stroke-linecap="round" stroke-width="1.5" d="M12 5.046C5.112-1.398-6.556 6 12 21.286m0-16.24c6.888-6.444 18.556.955 0 16.24" /></g></symbol><symbol fill="none" viewBox="0 0 20 20" id="search_sprite"><g clip-path="url(#clip0_701_325)"><circle cx="9.77" cy="8.936" r="7.27" stroke="currentColor" stroke-width="1.25" /><path stroke="currentColor" stroke-linecap="round" stroke-width="1.25" d="m14.313 15.297 2.376 3.036" /></g></symbol><symbol fill="none" viewBox="0 0 20 19" id="star_sprite"><path fill="#FADFCC" d="M9.049.927c.3-.921 1.603-.921 1.902 0l1.519 4.674a1 1 0 0 0 .95.69h4.915c.969 0 1.371 1.24.588 1.81l-3.976 2.888a1 1 0 0 0-.363 1.118l1.518 4.674c.3.922-.755 1.688-1.539 1.118l-3.975-2.888a1 1 0 0 0-1.176 0l-3.976 2.888c-.783.57-1.838-.197-1.538-1.118l1.518-4.674a1 1 0 0 0-.363-1.118L1.077 8.101c-.783-.57-.38-1.81.588-1.81h4.914a1 1 0 0 0 .951-.69L9.05.927Z" /></symbol><symbol fill="none" viewBox="0 0 24 24" id="user_sprite"><g clip-path="url(#clip0_586_286)"><circle cx="12.002" cy="7.365" r="5.203" stroke="currentColor" stroke-width="1.5" /><path stroke="currentColor" stroke-linecap="round" stroke-width="1.5" d="M2 22.589v0c0-2.162 0-3.243.349-4.098a4.706 4.706 0 0 1 2.58-2.58c.854-.348 1.935-.348 4.097-.348h5.948c2.162 0 3.243 0 4.097.348a4.706 4.706 0 0 1 2.58 2.58c.349.855.349 1.936.349 4.098v0" /></g></symbol></defs><use id="arrow-r_sprite-usage" xlink:href="#arrow-r_sprite" class="sprite-symbol-usage" /><use id="cart_sprite-usage" xlink:href="#cart_sprite" class="sprite-symbol-usage" /><use id="check_sprite-usage" xlink:href="#check_sprite" class="sprite-symbol-usage" /><use id="favorite_sprite-usage" xlink:href="#favorite_sprite" class="sprite-symbol-usage" /><use id="search_sprite-usage" xlink:href="#search_sprite" class="sprite-symbol-usage" /><use id="star_sprite-usage" xlink:href="#star_sprite" class="sprite-symbol-usage" /><use id="user_sprite-usage" xlink:href="#user_sprite" class="sprite-symbol-usage" /></svg>